<?xml version="1.0" encoding="UTF-8"?><svg xmlns="http://www.w3.org/2000/svg" xmlns:xlink="http://www.w3.org/1999/xlink" fill-opacity="1" color-rendering="auto" color-interpolation="auto" text-rendering="auto" stroke="black" stroke-linecap="square" width="1148" stroke-miterlimit="10" shape-rendering="auto" stroke-opacity="1" fill="black" stroke-dasharray="none" font-weight="normal" stroke-width="1" height="1036" font-family="'Dialog'" font-style="normal" stroke-linejoin="miter" font-size="12px" stroke-dashoffset="0" image-rendering="auto">
  <!--Generated by ySVG 2.5-->
  <defs id="genericDefs"/>
  <g>
    <defs id="defs1">
      <linearGradient x1="601.5" gradientUnits="userSpaceOnUse" x2="788.5" y1="-4" y2="57" id="linearGradient1" spreadMethod="reflect">
        <stop stop-opacity="1" stop-color="rgb(232,238,247)" offset="0%"/>
        <stop stop-opacity="1" stop-color="rgb(183,201,227)" offset="100%"/>
      </linearGradient>
      <linearGradient x1="578.5" gradientUnits="userSpaceOnUse" x2="811.5" y1="103" y2="181" id="linearGradient2" spreadMethod="reflect">
        <stop stop-opacity="1" stop-color="rgb(255,204,153)" offset="0%"/>
        <stop stop-opacity="1" stop-color="rgb(255,204,153)" offset="100%"/>
      </linearGradient>
      <linearGradient x1="601.5" gradientUnits="userSpaceOnUse" x2="788.5" y1="363" y2="441" id="linearGradient3" spreadMethod="reflect">
        <stop stop-opacity="1" stop-color="rgb(255,204,153)" offset="0%"/>
        <stop stop-opacity="1" stop-color="rgb(255,204,153)" offset="100%"/>
      </linearGradient>
      <linearGradient x1="1067.5" gradientUnits="userSpaceOnUse" x2="1246.5" y1="178" y2="270" id="linearGradient4" spreadMethod="reflect">
        <stop stop-opacity="1" stop-color="rgb(255,204,153)" offset="0%"/>
        <stop stop-opacity="1" stop-color="rgb(255,204,153)" offset="100%"/>
      </linearGradient>
      <linearGradient x1="1259.5" gradientUnits="userSpaceOnUse" x2="1424.5" y1="270" y2="329" id="linearGradient5" spreadMethod="reflect">
        <stop stop-opacity="1" stop-color="rgb(204,255,204)" offset="0%"/>
        <stop stop-opacity="1" stop-color="rgb(204,255,204)" offset="100%"/>
      </linearGradient>
      <linearGradient x1="902.5" gradientUnits="userSpaceOnUse" x2="1067.5" y1="279.5" y2="319.5" id="linearGradient6" spreadMethod="reflect">
        <stop stop-opacity="1" stop-color="rgb(204,255,204)" offset="0%"/>
        <stop stop-opacity="1" stop-color="rgb(204,255,204)" offset="100%"/>
      </linearGradient>
      <linearGradient x1="880.75" gradientUnits="userSpaceOnUse" x2="1067.75" y1="496.5" y2="588.5" id="linearGradient7" spreadMethod="reflect">
        <stop stop-opacity="1" stop-color="rgb(255,204,153)" offset="0%"/>
        <stop stop-opacity="1" stop-color="rgb(255,204,153)" offset="100%"/>
      </linearGradient>
      <linearGradient x1="1160" gradientUnits="userSpaceOnUse" x2="1354" y1="503.5" y2="581.5" id="linearGradient8" spreadMethod="reflect">
        <stop stop-opacity="1" stop-color="rgb(204,255,204)" offset="0%"/>
        <stop stop-opacity="1" stop-color="rgb(204,255,204)" offset="100%"/>
      </linearGradient>
      <linearGradient x1="881" gradientUnits="userSpaceOnUse" x2="1067.5" y1="363" y2="441" id="linearGradient9" spreadMethod="reflect">
        <stop stop-opacity="1" stop-color="rgb(255,204,153)" offset="0%"/>
        <stop stop-opacity="1" stop-color="rgb(255,204,153)" offset="100%"/>
      </linearGradient>
      <linearGradient x1="1160" gradientUnits="userSpaceOnUse" x2="1354" y1="367" y2="437" id="linearGradient10" spreadMethod="reflect">
        <stop stop-opacity="1" stop-color="rgb(204,255,204)" offset="0%"/>
        <stop stop-opacity="1" stop-color="rgb(204,255,204)" offset="100%"/>
      </linearGradient>
      <linearGradient x1="880.75" gradientUnits="userSpaceOnUse" x2="1067.75" y1="644" y2="705" id="linearGradient11" spreadMethod="reflect">
        <stop stop-opacity="1" stop-color="rgb(255,204,153)" offset="0%"/>
        <stop stop-opacity="1" stop-color="rgb(255,204,153)" offset="100%"/>
      </linearGradient>
      <linearGradient x1="880.75" gradientUnits="userSpaceOnUse" x2="1067.75" y1="743.5" y2="821.5" id="linearGradient12" spreadMethod="reflect">
        <stop stop-opacity="1" stop-color="rgb(255,204,153)" offset="0%"/>
        <stop stop-opacity="1" stop-color="rgb(255,204,153)" offset="100%"/>
      </linearGradient>
      <linearGradient x1="880.75" gradientUnits="userSpaceOnUse" x2="1067.75" y1="860" y2="900" id="linearGradient13" spreadMethod="reflect">
        <stop stop-opacity="1" stop-color="rgb(255,204,153)" offset="0%"/>
        <stop stop-opacity="1" stop-color="rgb(255,204,153)" offset="100%"/>
      </linearGradient>
      <linearGradient x1="1160" gradientUnits="userSpaceOnUse" x2="1354" y1="654.5" y2="694.5" id="linearGradient14" spreadMethod="reflect">
        <stop stop-opacity="1" stop-color="rgb(204,255,204)" offset="0%"/>
        <stop stop-opacity="1" stop-color="rgb(204,255,204)" offset="100%"/>
      </linearGradient>
      <linearGradient x1="1160" gradientUnits="userSpaceOnUse" x2="1354" y1="762.5" y2="802.5" id="linearGradient15" spreadMethod="reflect">
        <stop stop-opacity="1" stop-color="rgb(204,255,204)" offset="0%"/>
        <stop stop-opacity="1" stop-color="rgb(204,255,204)" offset="100%"/>
      </linearGradient>
      <linearGradient x1="915.75" gradientUnits="userSpaceOnUse" x2="1032.75" y1="961.5" y2="1001.5" id="linearGradient16" spreadMethod="reflect">
        <stop stop-opacity="1" stop-color="maroon" offset="0%"/>
        <stop stop-opacity="1" stop-color="rgb(153,51,0)" offset="100%"/>
      </linearGradient>
      <linearGradient x1="1160" gradientUnits="userSpaceOnUse" x2="1354" y1="860" y2="900" id="linearGradient17" spreadMethod="reflect">
        <stop stop-opacity="1" stop-color="rgb(204,255,204)" offset="0%"/>
        <stop stop-opacity="1" stop-color="rgb(204,255,204)" offset="100%"/>
      </linearGradient>
      <linearGradient x1="612.5" gradientUnits="userSpaceOnUse" x2="777.5" y1="503.5" y2="581.5" id="linearGradient18" spreadMethod="reflect">
        <stop stop-opacity="1" stop-color="rgb(255,204,153)" offset="0%"/>
        <stop stop-opacity="1" stop-color="rgb(255,204,153)" offset="100%"/>
      </linearGradient>
      <linearGradient x1="307.75" gradientUnits="userSpaceOnUse" x2="458.75" y1="512" y2="573" id="linearGradient19" spreadMethod="reflect">
        <stop stop-opacity="1" stop-color="rgb(204,255,204)" offset="0%"/>
        <stop stop-opacity="1" stop-color="rgb(204,255,204)" offset="100%"/>
      </linearGradient>
      <clipPath clipPathUnits="userSpaceOnUse" id="clipPath1">
        <path d="M0 0 L1148 0 L1148 1036 L0 1036 L0 0 Z"/>
      </clipPath>
      <clipPath clipPathUnits="userSpaceOnUse" id="clipPath2">
        <path d="M292 -19 L1440 -19 L1440 1017 L292 1017 L292 -19 Z"/>
      </clipPath>
    </defs>
    <g fill="white" text-rendering="geometricPrecision" shape-rendering="geometricPrecision" transform="translate(-292,19)" stroke="white">
      <rect x="292" width="1148" height="1036" y="-19" clip-path="url(#clipPath2)" stroke="none"/>
    </g>
    <g fill="url(#linearGradient1)" text-rendering="geometricPrecision" shape-rendering="geometricPrecision" transform="matrix(1,0,0,1,-292,19)" stroke="url(#linearGradient1)">
      <ellipse rx="93.5" ry="30.5" clip-path="url(#clipPath2)" cx="695" cy="26.5" stroke="none"/>
    </g>
    <g text-rendering="geometricPrecision" stroke-miterlimit="1.45" shape-rendering="geometricPrecision" font-family="sans-serif" transform="matrix(1,0,0,1,-292,19)" stroke-linecap="butt">
      <text x="628.3701" xml:space="preserve" y="31.2139" clip-path="url(#clipPath2)" stroke="none">Для каждого параметра</text>
    </g>
    <g fill="url(#linearGradient2)" text-rendering="geometricPrecision" shape-rendering="geometricPrecision" transform="matrix(1,0,0,1,-292,19)" stroke="url(#linearGradient2)">
      <path d="M695 103 L811.5 142 L695 181 L578.5 142 Z" stroke="none" clip-path="url(#clipPath2)"/>
    </g>
    <g text-rendering="geometricPrecision" stroke-miterlimit="1.45" shape-rendering="geometricPrecision" font-family="sans-serif" transform="matrix(1,0,0,1,-292,19)" stroke-linecap="butt">
      <text x="647.0264" xml:space="preserve" y="139.3633" clip-path="url(#clipPath2)" stroke="none">Ключ $arguments</text>
      <text x="619.458" xml:space="preserve" y="154.0645" clip-path="url(#clipPath2)" stroke="none">содержим имя параметра?</text>
    </g>
    <g fill="url(#linearGradient3)" text-rendering="geometricPrecision" shape-rendering="geometricPrecision" transform="matrix(1,0,0,1,-292,19)" stroke="url(#linearGradient3)">
      <path d="M695 363 L788.5 402 L695 441 L601.5 402 Z" stroke="none" clip-path="url(#clipPath2)"/>
    </g>
    <g text-rendering="geometricPrecision" stroke-miterlimit="1.45" shape-rendering="geometricPrecision" font-family="sans-serif" transform="matrix(1,0,0,1,-292,19)" stroke-linecap="butt">
      <text x="633.5791" xml:space="preserve" y="399.3633" clip-path="url(#clipPath2)" stroke="none">Тип параметра object,</text>
      <text x="631.9502" xml:space="preserve" y="414.0645" clip-path="url(#clipPath2)" stroke="none">класс или интерфейс?</text>
    </g>
    <g fill="url(#linearGradient4)" text-rendering="geometricPrecision" shape-rendering="geometricPrecision" transform="matrix(1,0,0,1,-292,19)" stroke="url(#linearGradient4)">
      <path d="M1157 178 L1246.5 224 L1157 270 L1067.5 224 Z" stroke="none" clip-path="url(#clipPath2)"/>
    </g>
    <g text-rendering="geometricPrecision" stroke-miterlimit="1.45" shape-rendering="geometricPrecision" font-family="sans-serif" transform="matrix(1,0,0,1,-292,19)" stroke-linecap="butt">
      <text x="1105.1211" xml:space="preserve" y="214.0127" clip-path="url(#clipPath2)" stroke="none">Параметр variadic </text>
      <text x="1092.7637" xml:space="preserve" y="228.7139" clip-path="url(#clipPath2)" stroke="none">и значение $arguments</text>
      <text x="1133.6621" xml:space="preserve" y="243.415" clip-path="url(#clipPath2)" stroke="none">массив?</text>
    </g>
    <g fill="url(#linearGradient5)" text-rendering="geometricPrecision" shape-rendering="geometricPrecision" transform="matrix(1,0,0,1,-292,19)" stroke="url(#linearGradient5)">
      <rect x="1259.5" y="270" clip-path="url(#clipPath2)" width="165" rx="29.5" ry="29.5" height="59" stroke="none"/>
    </g>
    <g stroke-linecap="round" transform="matrix(1,0,0,1,-292,19)" stroke-dashoffset="2" text-rendering="geometricPrecision" shape-rendering="geometricPrecision" stroke-dasharray="0,4" stroke-miterlimit="1.45">
      <rect x="1259.5" y="270" clip-path="url(#clipPath2)" fill="none" width="165" rx="29.5" ry="29.5" height="59"/>
    </g>
    <g text-rendering="geometricPrecision" stroke-miterlimit="1.45" shape-rendering="geometricPrecision" font-family="sans-serif" transform="matrix(1,0,0,1,-292,19)" stroke-linecap="butt">
      <text x="1271.5732" xml:space="preserve" y="296.8633" clip-path="url(#clipPath2)" stroke="none">Используем развёрнутое</text>
      <text x="1282.7822" xml:space="preserve" y="311.5645" clip-path="url(#clipPath2)" stroke="none">значение $arguments</text>
    </g>
    <g fill="url(#linearGradient6)" text-rendering="geometricPrecision" shape-rendering="geometricPrecision" transform="matrix(1,0,0,1,-292,19)" stroke="url(#linearGradient6)">
      <rect x="902.5" y="279.5" clip-path="url(#clipPath2)" width="165" rx="20" ry="20" height="40" stroke="none"/>
    </g>
    <g stroke-linecap="round" transform="matrix(1,0,0,1,-292,19)" stroke-dashoffset="2" text-rendering="geometricPrecision" shape-rendering="geometricPrecision" stroke-dasharray="0,4" stroke-miterlimit="1.45">
      <rect x="902.5" y="279.5" clip-path="url(#clipPath2)" fill="none" width="165" rx="20" ry="20" height="40"/>
    </g>
    <g text-rendering="geometricPrecision" stroke-miterlimit="1.45" shape-rendering="geometricPrecision" font-family="sans-serif" transform="matrix(1,0,0,1,-292,19)" stroke-linecap="butt">
      <text x="951.2617" xml:space="preserve" y="296.8633" clip-path="url(#clipPath2)" stroke="none">Используем</text>
      <text x="925.7822" xml:space="preserve" y="311.5645" clip-path="url(#clipPath2)" stroke="none">значение $arguments</text>
    </g>
    <g fill="url(#linearGradient7)" text-rendering="geometricPrecision" shape-rendering="geometricPrecision" transform="matrix(1,0,0,1,-292,19)" stroke="url(#linearGradient7)">
      <path d="M974.25 496.5 L1067.75 542.5 L974.25 588.5 L880.75 542.5 Z" stroke="none" clip-path="url(#clipPath2)"/>
    </g>
    <g text-rendering="geometricPrecision" stroke-miterlimit="1.45" shape-rendering="geometricPrecision" font-family="sans-serif" transform="matrix(1,0,0,1,-292,19)" stroke-linecap="butt">
      <text x="923.0186" xml:space="preserve" y="532.5127" clip-path="url(#clipPath2)" stroke="none">В $arguments есть</text>
      <text x="916.4941" xml:space="preserve" y="547.2139" clip-path="url(#clipPath2)" stroke="none">объект нужного типа</text>
      <text x="942.2432" xml:space="preserve" y="561.915" clip-path="url(#clipPath2)" stroke="none">без имени?</text>
    </g>
    <g fill="url(#linearGradient8)" text-rendering="geometricPrecision" shape-rendering="geometricPrecision" transform="matrix(1,0,0,1,-292,19)" stroke="url(#linearGradient8)">
      <rect x="1160" y="503.5" clip-path="url(#clipPath2)" width="194" rx="39" ry="39" height="78" stroke="none"/>
    </g>
    <g stroke-linecap="round" transform="matrix(1,0,0,1,-292,19)" stroke-dashoffset="2" text-rendering="geometricPrecision" shape-rendering="geometricPrecision" stroke-dasharray="0,4" stroke-miterlimit="1.45">
      <rect x="1160" y="503.5" clip-path="url(#clipPath2)" fill="none" width="194" rx="39" ry="39" height="78"/>
    </g>
    <g text-rendering="geometricPrecision" stroke-miterlimit="1.45" shape-rendering="geometricPrecision" font-family="sans-serif" transform="matrix(1,0,0,1,-292,19)" stroke-linecap="butt">
      <text x="1202.3613" xml:space="preserve" y="525.1621" clip-path="url(#clipPath2)" stroke="none">Используем объект</text>
      <text x="1168.3096" xml:space="preserve" y="539.8633" clip-path="url(#clipPath2)" stroke="none">из $arguments (по подядку если</text>
      <text x="1186.1191" xml:space="preserve" y="554.5645" clip-path="url(#clipPath2)" stroke="none">у нескольких параметров</text>
      <text x="1214.9531" xml:space="preserve" y="569.2656" clip-path="url(#clipPath2)" stroke="none">совпадает тип)</text>
    </g>
    <g fill="url(#linearGradient9)" text-rendering="geometricPrecision" shape-rendering="geometricPrecision" transform="matrix(1,0,0,1,-292,19)" stroke="url(#linearGradient9)">
      <path d="M974.25 363 L1067.5 402 L974.25 441 L881 402 Z" stroke="none" clip-path="url(#clipPath2)"/>
    </g>
    <g text-rendering="geometricPrecision" stroke-miterlimit="1.45" shape-rendering="geometricPrecision" font-family="sans-serif" transform="matrix(1,0,0,1,-292,19)" stroke-linecap="butt">
      <text x="920.7012" xml:space="preserve" y="406.7139" clip-path="url(#clipPath2)" stroke="none">Параметр variadic?</text>
    </g>
    <g fill="url(#linearGradient10)" text-rendering="geometricPrecision" shape-rendering="geometricPrecision" transform="matrix(1,0,0,1,-292,19)" stroke="url(#linearGradient10)">
      <rect x="1160" y="367" clip-path="url(#clipPath2)" width="194" rx="35" ry="35" height="70" stroke="none"/>
    </g>
    <g stroke-linecap="round" transform="matrix(1,0,0,1,-292,19)" stroke-dashoffset="2" text-rendering="geometricPrecision" shape-rendering="geometricPrecision" stroke-dasharray="0,4" stroke-miterlimit="1.45">
      <rect x="1160" y="367" clip-path="url(#clipPath2)" fill="none" width="194" rx="35" ry="35" height="70"/>
    </g>
    <g text-rendering="geometricPrecision" stroke-miterlimit="1.45" shape-rendering="geometricPrecision" font-family="sans-serif" transform="matrix(1,0,0,1,-292,19)" stroke-linecap="butt">
      <text x="1212.0703" xml:space="preserve" y="384.6621" clip-path="url(#clipPath2)" stroke="none">Используем все</text>
      <text x="1192.333" xml:space="preserve" y="399.3633" clip-path="url(#clipPath2)" stroke="none">объекты из $arguments</text>
      <text x="1191.3252" xml:space="preserve" y="414.0645" clip-path="url(#clipPath2)" stroke="none">с этим типом (их может</text>
      <text x="1228.043" xml:space="preserve" y="428.7656" clip-path="url(#clipPath2)" stroke="none">и не быть)</text>
    </g>
    <g fill="url(#linearGradient11)" text-rendering="geometricPrecision" shape-rendering="geometricPrecision" transform="matrix(1,0,0,1,-292,19)" stroke="url(#linearGradient11)">
      <path d="M974.25 644 L1067.75 674.5 L974.25 705 L880.75 674.5 Z" stroke="none" clip-path="url(#clipPath2)"/>
    </g>
    <g text-rendering="geometricPrecision" stroke-miterlimit="1.45" shape-rendering="geometricPrecision" font-family="sans-serif" transform="matrix(1,0,0,1,-292,19)" stroke-linecap="butt">
      <text x="936.5449" xml:space="preserve" y="671.8633" clip-path="url(#clipPath2)" stroke="none">В контейнере</text>
      <text x="918.0879" xml:space="preserve" y="686.5645" clip-path="url(#clipPath2)" stroke="none">объект такого типа?</text>
    </g>
    <g fill="url(#linearGradient12)" text-rendering="geometricPrecision" shape-rendering="geometricPrecision" transform="matrix(1,0,0,1,-292,19)" stroke="url(#linearGradient12)">
      <path d="M974.25 743.5 L1067.75 782.5 L974.25 821.5 L880.75 782.5 Z" stroke="none" clip-path="url(#clipPath2)"/>
    </g>
    <g text-rendering="geometricPrecision" stroke-miterlimit="1.45" shape-rendering="geometricPrecision" font-family="sans-serif" transform="matrix(1,0,0,1,-292,19)" stroke-linecap="butt">
      <text x="939.2578" xml:space="preserve" y="779.8633" clip-path="url(#clipPath2)" stroke="none">Значение по</text>
      <text x="925.4443" xml:space="preserve" y="794.5645" clip-path="url(#clipPath2)" stroke="none">умолчанию есть?</text>
    </g>
    <g fill="url(#linearGradient13)" text-rendering="geometricPrecision" shape-rendering="geometricPrecision" transform="matrix(1,0,0,1,-292,19)" stroke="url(#linearGradient13)">
      <path d="M974.25 860 L1067.75 880 L974.25 900 L880.75 880 Z" stroke="none" clip-path="url(#clipPath2)"/>
    </g>
    <g text-rendering="geometricPrecision" stroke-miterlimit="1.45" shape-rendering="geometricPrecision" font-family="sans-serif" transform="matrix(1,0,0,1,-292,19)" stroke-linecap="butt">
      <text x="950.2295" xml:space="preserve" y="884.7139" clip-path="url(#clipPath2)" stroke="none">nullable?</text>
    </g>
    <g fill="url(#linearGradient14)" text-rendering="geometricPrecision" shape-rendering="geometricPrecision" transform="matrix(1,0,0,1,-292,19)" stroke="url(#linearGradient14)">
      <rect x="1160" y="654.5" clip-path="url(#clipPath2)" width="194" rx="20" ry="20" height="40" stroke="none"/>
    </g>
    <g stroke-linecap="round" transform="matrix(1,0,0,1,-292,19)" stroke-dashoffset="2" text-rendering="geometricPrecision" shape-rendering="geometricPrecision" stroke-dasharray="0,4" stroke-miterlimit="1.45">
      <rect x="1160" y="654.5" clip-path="url(#clipPath2)" fill="none" width="194" rx="20" ry="20" height="40"/>
    </g>
    <g text-rendering="geometricPrecision" stroke-miterlimit="1.45" shape-rendering="geometricPrecision" font-family="sans-serif" transform="matrix(1,0,0,1,-292,19)" stroke-linecap="butt">
      <text x="1202.3613" xml:space="preserve" y="671.8633" clip-path="url(#clipPath2)" stroke="none">Используем объект</text>
      <text x="1217.1943" xml:space="preserve" y="686.5645" clip-path="url(#clipPath2)" stroke="none">из контейнера</text>
    </g>
    <g fill="url(#linearGradient15)" text-rendering="geometricPrecision" shape-rendering="geometricPrecision" transform="matrix(1,0,0,1,-292,19)" stroke="url(#linearGradient15)">
      <rect x="1160" y="762.5" clip-path="url(#clipPath2)" width="194" rx="20" ry="20" height="40" stroke="none"/>
    </g>
    <g stroke-linecap="round" transform="matrix(1,0,0,1,-292,19)" stroke-dashoffset="2" text-rendering="geometricPrecision" shape-rendering="geometricPrecision" stroke-dasharray="0,4" stroke-miterlimit="1.45">
      <rect x="1160" y="762.5" clip-path="url(#clipPath2)" fill="none" width="194" rx="20" ry="20" height="40"/>
    </g>
    <g text-rendering="geometricPrecision" stroke-miterlimit="1.45" shape-rendering="geometricPrecision" font-family="sans-serif" transform="matrix(1,0,0,1,-292,19)" stroke-linecap="butt">
      <text x="1223.2617" xml:space="preserve" y="779.8633" clip-path="url(#clipPath2)" stroke="none">Используем</text>
      <text x="1226.5723" xml:space="preserve" y="794.5645" clip-path="url(#clipPath2)" stroke="none">умолчание</text>
    </g>
    <g fill="url(#linearGradient16)" text-rendering="geometricPrecision" shape-rendering="geometricPrecision" transform="matrix(1,0,0,1,-292,19)" stroke="url(#linearGradient16)">
      <rect x="915.75" y="961.5" clip-path="url(#clipPath2)" width="117" rx="20" ry="20" height="40" stroke="none"/>
    </g>
    <g stroke-linecap="round" transform="matrix(1,0,0,1,-292,19)" stroke-dashoffset="2" text-rendering="geometricPrecision" shape-rendering="geometricPrecision" stroke-dasharray="0,12" stroke-width="3" stroke-miterlimit="1.45">
      <rect x="915.75" y="961.5" clip-path="url(#clipPath2)" fill="none" width="117" rx="20" ry="20" height="40"/>
    </g>
    <g stroke-linecap="butt" transform="matrix(1,0,0,1,-292,19)" fill="white" text-rendering="geometricPrecision" font-family="sans-serif" shape-rendering="geometricPrecision" stroke="white" stroke-miterlimit="1.45">
      <text x="939.8467" xml:space="preserve" y="986.2139" clip-path="url(#clipPath2)" stroke="none">Исключение</text>
    </g>
    <g fill="url(#linearGradient17)" text-rendering="geometricPrecision" shape-rendering="geometricPrecision" transform="matrix(1,0,0,1,-292,19)" stroke="url(#linearGradient17)">
      <rect x="1160" y="860" clip-path="url(#clipPath2)" width="194" rx="20" ry="20" height="40" stroke="none"/>
    </g>
    <g stroke-linecap="round" transform="matrix(1,0,0,1,-292,19)" stroke-dashoffset="2" text-rendering="geometricPrecision" shape-rendering="geometricPrecision" stroke-dasharray="0,4" stroke-miterlimit="1.45">
      <rect x="1160" y="860" clip-path="url(#clipPath2)" fill="none" width="194" rx="20" ry="20" height="40"/>
    </g>
    <g text-rendering="geometricPrecision" stroke-miterlimit="1.45" shape-rendering="geometricPrecision" font-family="sans-serif" transform="matrix(1,0,0,1,-292,19)" stroke-linecap="butt">
      <text x="1212.2549" xml:space="preserve" y="884.7139" clip-path="url(#clipPath2)" stroke="none">Используем null</text>
    </g>
    <g fill="url(#linearGradient18)" text-rendering="geometricPrecision" shape-rendering="geometricPrecision" transform="matrix(1,0,0,1,-292,19)" stroke="url(#linearGradient18)">
      <path d="M695 503.5 L777.5 542.5 L695 581.5 L612.5 542.5 Z" stroke="none" clip-path="url(#clipPath2)"/>
    </g>
    <g text-rendering="geometricPrecision" stroke-miterlimit="1.45" shape-rendering="geometricPrecision" font-family="sans-serif" transform="matrix(1,0,0,1,-292,19)" stroke-linecap="butt">
      <text x="641.5859" xml:space="preserve" y="539.8633" clip-path="url(#clipPath2)" stroke="none">Параметр без типа</text>
      <text x="638.917" xml:space="preserve" y="554.5645" clip-path="url(#clipPath2)" stroke="none">и аргумент variadic?</text>
    </g>
    <g fill="url(#linearGradient19)" text-rendering="geometricPrecision" shape-rendering="geometricPrecision" transform="matrix(1,0,0,1,-292,19)" stroke="url(#linearGradient19)">
      <rect x="307.75" y="512" clip-path="url(#clipPath2)" width="151" rx="30.5" ry="30.5" height="61" stroke="none"/>
    </g>
    <g stroke-linecap="round" transform="matrix(1,0,0,1,-292,19)" stroke-dashoffset="2" text-rendering="geometricPrecision" shape-rendering="geometricPrecision" stroke-dasharray="0,4" stroke-miterlimit="1.45">
      <rect x="307.75" y="512" clip-path="url(#clipPath2)" fill="none" width="151" rx="30.5" ry="30.5" height="61"/>
    </g>
    <g text-rendering="geometricPrecision" stroke-miterlimit="1.45" shape-rendering="geometricPrecision" font-family="sans-serif" transform="matrix(1,0,0,1,-292,19)" stroke-linecap="butt">
      <text x="334.4238" xml:space="preserve" y="532.5127" clip-path="url(#clipPath2)" stroke="none">Подставляем все</text>
      <text x="338.335" xml:space="preserve" y="547.2139" clip-path="url(#clipPath2)" stroke="none">неименованные</text>
      <text x="353.5518" xml:space="preserve" y="561.915" clip-path="url(#clipPath2)" stroke="none">аргументы</text>
    </g>
    <g text-rendering="geometricPrecision" stroke-miterlimit="1.45" shape-rendering="geometricPrecision" transform="matrix(1,0,0,1,-292,19)" stroke-linecap="butt">
      <path fill="none" d="M695 56.9823 L695 95.0197" clip-path="url(#clipPath2)"/>
    </g>
    <g text-rendering="geometricPrecision" stroke-miterlimit="1.45" shape-rendering="geometricPrecision" transform="matrix(1,0,0,1,-292,19)" stroke-linecap="butt">
      <path d="M695 103.0197 L700 91.0197 L695 94.0197 L690 91.0197 Z" stroke="none" clip-path="url(#clipPath2)"/>
      <path fill="none" d="M695 181.0063 L695 353.0186" stroke-width="3" clip-path="url(#clipPath2)" stroke="rgb(153,51,0)"/>
      <path fill="rgb(153,51,0)" d="M695 363.0186 L701.25 348.0186 L695 351.7686 L688.75 348.0186 Z" stroke-width="3" clip-path="url(#clipPath2)" stroke="none"/>
      <path fill="none" d="M811.4869 142 L1157 142 L1157 167.9951" stroke-width="3" clip-path="url(#clipPath2)" stroke="green"/>
      <path fill="green" d="M1157 177.9951 L1163.25 162.9951 L1157 166.7451 L1150.75 162.9951 Z" stroke-width="3" clip-path="url(#clipPath2)" stroke="none"/>
      <path fill="none" d="M1246.4739 224 L1342 224 L1342 259.9709" stroke-width="3" clip-path="url(#clipPath2)" stroke="green"/>
      <path fill="green" d="M1342 269.9709 L1348.25 254.9709 L1342 258.7209 L1335.75 254.9709 Z" stroke-width="3" clip-path="url(#clipPath2)" stroke="none"/>
      <path fill="none" d="M1067.5146 224 L985 224 L985 269.4822" stroke-width="3" clip-path="url(#clipPath2)" stroke="rgb(153,51,0)"/>
      <path fill="rgb(153,51,0)" d="M985 279.4822 L991.25 264.4822 L985 268.2322 L978.75 264.4822 Z" stroke-width="3" clip-path="url(#clipPath2)" stroke="none"/>
      <path fill="none" d="M1067.7522 542.5 L1150.0198 542.5" stroke-width="3" clip-path="url(#clipPath2)" stroke="green"/>
      <path fill="green" d="M1160.0198 542.5 L1145.0198 536.25 L1148.7698 542.5 L1145.0198 548.75 Z" stroke-width="3" clip-path="url(#clipPath2)" stroke="none"/>
      <path fill="none" d="M788.5038 402 L870.9688 402" stroke-width="3" clip-path="url(#clipPath2)" stroke="green"/>
      <path fill="green" d="M880.9688 402 L865.9688 395.75 L869.7188 402 L865.9688 408.25 Z" stroke-width="3" clip-path="url(#clipPath2)" stroke="none"/>
      <path fill="none" d="M974.25 441.0011 L974.25 486.4587" stroke-width="3" clip-path="url(#clipPath2)" stroke="rgb(153,51,0)"/>
      <path fill="rgb(153,51,0)" d="M974.25 496.4587 L980.5 481.4587 L974.25 485.2087 L968 481.4587 Z" stroke-width="3" clip-path="url(#clipPath2)" stroke="none"/>
      <path fill="none" d="M1067.4761 402 L1149.9708 402" stroke-width="3" clip-path="url(#clipPath2)" stroke="green"/>
      <path fill="green" d="M1159.9708 402 L1144.9708 395.75 L1148.7208 402 L1144.9708 408.25 Z" stroke-width="3" clip-path="url(#clipPath2)" stroke="none"/>
      <path fill="none" d="M974.25 588.4873 L974.25 633.9672" stroke-width="3" clip-path="url(#clipPath2)" stroke="rgb(153,51,0)"/>
      <path fill="rgb(153,51,0)" d="M974.25 643.9672 L980.5 628.9672 L974.25 632.7172 L968 628.9672 Z" stroke-width="3" clip-path="url(#clipPath2)" stroke="none"/>
      <path fill="none" d="M974.25 705.0068 L974.25 733.4885" stroke-width="3" clip-path="url(#clipPath2)" stroke="rgb(153,51,0)"/>
      <path fill="rgb(153,51,0)" d="M974.25 743.4885 L980.5 728.4885 L974.25 732.2385 L968 728.4885 Z" stroke-width="3" clip-path="url(#clipPath2)" stroke="none"/>
      <path fill="none" d="M974.25 821.4905 L974.25 849.9731" stroke-width="3" clip-path="url(#clipPath2)" stroke="rgb(153,51,0)"/>
      <path fill="rgb(153,51,0)" d="M974.25 859.9731 L980.5 844.9731 L974.25 848.7231 L968 844.9731 Z" stroke-width="3" clip-path="url(#clipPath2)" stroke="none"/>
      <path fill="none" d="M1067.7522 674.5 L1150.0198 674.5" stroke-width="3" clip-path="url(#clipPath2)" stroke="green"/>
      <path fill="green" d="M1160.0198 674.5 L1145.0198 668.25 L1148.7698 674.5 L1145.0198 680.75 Z" stroke-width="3" clip-path="url(#clipPath2)" stroke="none"/>
      <path fill="none" d="M1067.7522 782.5 L1150.0198 782.5" stroke-width="3" clip-path="url(#clipPath2)" stroke="green"/>
      <path fill="green" d="M1160.0198 782.5 L1145.0198 776.25 L1148.7698 782.5 L1145.0198 788.75 Z" stroke-width="3" clip-path="url(#clipPath2)" stroke="none"/>
      <path fill="none" d="M974.25 899.9729 L974.25 951.4765" stroke-width="3" clip-path="url(#clipPath2)" stroke="rgb(153,51,0)"/>
      <path fill="rgb(153,51,0)" d="M974.25 961.4765 L980.5 946.4765 L974.25 950.2265 L968 946.4765 Z" stroke-width="3" clip-path="url(#clipPath2)" stroke="none"/>
      <path fill="none" d="M1067.7522 880 L1150.0198 880" stroke-width="3" clip-path="url(#clipPath2)" stroke="green"/>
      <path fill="green" d="M1160.0198 880 L1145.0198 873.75 L1148.7698 880 L1145.0198 886.25 Z" stroke-width="3" clip-path="url(#clipPath2)" stroke="none"/>
      <path fill="none" d="M695 441.0011 L695 493.4963" stroke-width="3" clip-path="url(#clipPath2)" stroke="rgb(153,51,0)"/>
      <path fill="rgb(153,51,0)" d="M695 503.4963 L701.25 488.4963 L695 492.2463 L688.75 488.4963 Z" stroke-width="3" clip-path="url(#clipPath2)" stroke="none"/>
      <path fill="none" d="M695 581.4941 L695 782.5 L870.7462 782.5" stroke-width="3" clip-path="url(#clipPath2)" stroke="rgb(153,51,0)"/>
      <path fill="rgb(153,51,0)" d="M880.7462 782.5 L865.7462 776.25 L869.4962 782.5 L865.7462 788.75 Z" stroke-width="3" clip-path="url(#clipPath2)" stroke="none"/>
      <path fill="none" d="M612.5339 542.5 L468.7357 542.5" stroke-width="3" clip-path="url(#clipPath2)" stroke="green"/>
      <path fill="green" d="M458.7357 542.5 L473.7357 548.75 L469.9857 542.5 L473.7357 536.25 Z" stroke-width="3" clip-path="url(#clipPath2)" stroke="none"/>
    </g>
  </g>
</svg>
