<?xml version="1.0" encoding="UTF-8"?><svg xmlns="http://www.w3.org/2000/svg" xmlns:xlink="http://www.w3.org/1999/xlink" fill-opacity="1" color-rendering="auto" color-interpolation="auto" text-rendering="auto" stroke="black" stroke-linecap="square" width="1059" stroke-miterlimit="10" shape-rendering="auto" stroke-opacity="1" fill="black" stroke-dasharray="none" font-weight="normal" stroke-width="1" height="882" font-family="'Dialog'" font-style="normal" stroke-linejoin="miter" font-size="12px" stroke-dashoffset="0" image-rendering="auto">
  <!--Generated by ySVG 2.5-->
  <defs id="genericDefs"/>
  <g>
    <defs id="defs1">
      <linearGradient x1="923.5" gradientUnits="userSpaceOnUse" x2="1110.5" y1="100" y2="161" id="linearGradient1" spreadMethod="reflect">
        <stop stop-opacity="1" stop-color="rgb(232,238,247)" offset="0%"/>
        <stop stop-opacity="1" stop-color="rgb(183,201,227)" offset="100%"/>
      </linearGradient>
      <linearGradient x1="932" gradientUnits="userSpaceOnUse" x2="1102" y1="207" y2="285" id="linearGradient2" spreadMethod="reflect">
        <stop stop-opacity="1" stop-color="rgb(255,204,153)" offset="0%"/>
        <stop stop-opacity="1" stop-color="rgb(255,204,153)" offset="100%"/>
      </linearGradient>
      <linearGradient x1="705" gradientUnits="userSpaceOnUse" x2="892" y1="207" y2="285" id="linearGradient3" spreadMethod="reflect">
        <stop stop-opacity="1" stop-color="rgb(255,204,153)" offset="0%"/>
        <stop stop-opacity="1" stop-color="rgb(255,204,153)" offset="100%"/>
      </linearGradient>
      <linearGradient x1="1159.5" gradientUnits="userSpaceOnUse" x2="1324.5" y1="207" y2="285" id="linearGradient4" spreadMethod="reflect">
        <stop stop-opacity="1" stop-color="rgb(255,204,153)" offset="0%"/>
        <stop stop-opacity="1" stop-color="rgb(255,204,153)" offset="100%"/>
      </linearGradient>
      <linearGradient x1="1375.5" gradientUnits="userSpaceOnUse" x2="1540.5" y1="216.5" y2="275.5" id="linearGradient5" spreadMethod="reflect">
        <stop stop-opacity="1" stop-color="rgb(204,255,204)" offset="0%"/>
        <stop stop-opacity="1" stop-color="rgb(204,255,204)" offset="100%"/>
      </linearGradient>
      <linearGradient x1="1159.5" gradientUnits="userSpaceOnUse" x2="1324.5" y1="332.25" y2="372.25" id="linearGradient6" spreadMethod="reflect">
        <stop stop-opacity="1" stop-color="rgb(204,255,204)" offset="0%"/>
        <stop stop-opacity="1" stop-color="rgb(204,255,204)" offset="100%"/>
      </linearGradient>
      <linearGradient x1="923.5" gradientUnits="userSpaceOnUse" x2="1110.5" y1="488.5" y2="580.5" id="linearGradient7" spreadMethod="reflect">
        <stop stop-opacity="1" stop-color="rgb(255,204,153)" offset="0%"/>
        <stop stop-opacity="1" stop-color="rgb(255,204,153)" offset="100%"/>
      </linearGradient>
      <linearGradient x1="1159.5" gradientUnits="userSpaceOnUse" x2="1324.5" y1="514.5" y2="554.5" id="linearGradient8" spreadMethod="reflect">
        <stop stop-opacity="1" stop-color="rgb(204,255,204)" offset="0%"/>
        <stop stop-opacity="1" stop-color="rgb(204,255,204)" offset="100%"/>
      </linearGradient>
      <linearGradient x1="923.75" gradientUnits="userSpaceOnUse" x2="1110.25" y1="380.5" y2="458.5" id="linearGradient9" spreadMethod="reflect">
        <stop stop-opacity="1" stop-color="rgb(255,204,153)" offset="0%"/>
        <stop stop-opacity="1" stop-color="rgb(255,204,153)" offset="100%"/>
      </linearGradient>
      <linearGradient x1="1159.5" gradientUnits="userSpaceOnUse" x2="1324.5" y1="387.5" y2="457.5" id="linearGradient10" spreadMethod="reflect">
        <stop stop-opacity="1" stop-color="rgb(204,255,204)" offset="0%"/>
        <stop stop-opacity="1" stop-color="rgb(204,255,204)" offset="100%"/>
      </linearGradient>
      <linearGradient x1="923.5" gradientUnits="userSpaceOnUse" x2="1110.5" y1="618.5" y2="679.5" id="linearGradient11" spreadMethod="reflect">
        <stop stop-opacity="1" stop-color="rgb(255,204,153)" offset="0%"/>
        <stop stop-opacity="1" stop-color="rgb(255,204,153)" offset="100%"/>
      </linearGradient>
      <linearGradient x1="923.5" gradientUnits="userSpaceOnUse" x2="1110.5" y1="717.5" y2="795.5" id="linearGradient12" spreadMethod="reflect">
        <stop stop-opacity="1" stop-color="rgb(255,204,153)" offset="0%"/>
        <stop stop-opacity="1" stop-color="rgb(255,204,153)" offset="100%"/>
      </linearGradient>
      <linearGradient x1="923.5" gradientUnits="userSpaceOnUse" x2="1110.5" y1="833.5" y2="873.5" id="linearGradient13" spreadMethod="reflect">
        <stop stop-opacity="1" stop-color="rgb(255,204,153)" offset="0%"/>
        <stop stop-opacity="1" stop-color="rgb(255,204,153)" offset="100%"/>
      </linearGradient>
      <linearGradient x1="1159.5" gradientUnits="userSpaceOnUse" x2="1324.5" y1="629" y2="669" id="linearGradient14" spreadMethod="reflect">
        <stop stop-opacity="1" stop-color="rgb(204,255,204)" offset="0%"/>
        <stop stop-opacity="1" stop-color="rgb(204,255,204)" offset="100%"/>
      </linearGradient>
      <linearGradient x1="1159.5" gradientUnits="userSpaceOnUse" x2="1324.5" y1="736.5" y2="776.5" id="linearGradient15" spreadMethod="reflect">
        <stop stop-opacity="1" stop-color="rgb(204,255,204)" offset="0%"/>
        <stop stop-opacity="1" stop-color="rgb(204,255,204)" offset="100%"/>
      </linearGradient>
      <linearGradient x1="958.5" gradientUnits="userSpaceOnUse" x2="1075.5" y1="911.5" y2="951.5" id="linearGradient16" spreadMethod="reflect">
        <stop stop-opacity="1" stop-color="maroon" offset="0%"/>
        <stop stop-opacity="1" stop-color="rgb(153,51,0)" offset="100%"/>
      </linearGradient>
      <linearGradient x1="1159.5" gradientUnits="userSpaceOnUse" x2="1324.5" y1="833.5" y2="873.5" id="linearGradient17" spreadMethod="reflect">
        <stop stop-opacity="1" stop-color="rgb(204,255,204)" offset="0%"/>
        <stop stop-opacity="1" stop-color="rgb(204,255,204)" offset="100%"/>
      </linearGradient>
      <linearGradient x1="512.5" gradientUnits="userSpaceOnUse" x2="736.5" y1="380.5" y2="472.5" id="linearGradient18" spreadMethod="reflect">
        <stop stop-opacity="1" stop-color="rgb(255,204,153)" offset="0%"/>
        <stop stop-opacity="1" stop-color="rgb(255,204,153)" offset="100%"/>
      </linearGradient>
      <linearGradient x1="766.5" gradientUnits="userSpaceOnUse" x2="917.5" y1="396" y2="457" id="linearGradient19" spreadMethod="reflect">
        <stop stop-opacity="1" stop-color="rgb(204,255,204)" offset="0%"/>
        <stop stop-opacity="1" stop-color="rgb(204,255,204)" offset="100%"/>
      </linearGradient>
      <clipPath clipPathUnits="userSpaceOnUse" id="clipPath1">
        <path d="M0 0 L1059 0 L1059 882 L0 882 L0 0 Z"/>
      </clipPath>
      <clipPath clipPathUnits="userSpaceOnUse" id="clipPath2">
        <path d="M497 85 L1556 85 L1556 967 L497 967 L497 85 Z"/>
      </clipPath>
    </defs>
    <g fill="url(#linearGradient1)" text-rendering="geometricPrecision" shape-rendering="geometricPrecision" transform="matrix(1,0,0,1,-497,-85)" stroke="url(#linearGradient1)">
      <ellipse rx="93.5" ry="30.5" clip-path="url(#clipPath2)" cx="1017" cy="130.5" stroke="none"/>
    </g>
    <g text-rendering="geometricPrecision" stroke-miterlimit="1.45" shape-rendering="geometricPrecision" font-family="sans-serif" transform="matrix(1,0,0,1,-497,-85)" stroke-linecap="butt">
      <text x="964.3096" xml:space="preserve" y="135.2139" clip-path="url(#clipPath2)" stroke="none">For each parameter</text>
    </g>
    <g fill="url(#linearGradient2)" text-rendering="geometricPrecision" shape-rendering="geometricPrecision" transform="matrix(1,0,0,1,-497,-85)" stroke="url(#linearGradient2)">
      <path d="M1017 207 L1102 246 L1017 285 L932 246 Z" stroke="none" clip-path="url(#clipPath2)"/>
    </g>
    <g text-rendering="geometricPrecision" stroke-miterlimit="1.45" shape-rendering="geometricPrecision" font-family="sans-serif" transform="matrix(1,0,0,1,-497,-85)" stroke-linecap="butt">
      <text x="965.3086" xml:space="preserve" y="250.7139" clip-path="url(#clipPath2)" stroke="none">Named parameter?</text>
    </g>
    <g fill="url(#linearGradient3)" text-rendering="geometricPrecision" shape-rendering="geometricPrecision" transform="matrix(1,0,0,1,-497,-85)" stroke="url(#linearGradient3)">
      <path d="M798.5 207 L892 246 L798.5 285 L705 246 Z" stroke="none" clip-path="url(#clipPath2)"/>
    </g>
    <g text-rendering="geometricPrecision" stroke-miterlimit="1.45" shape-rendering="geometricPrecision" font-family="sans-serif" transform="matrix(1,0,0,1,-497,-85)" stroke-linecap="butt">
      <text x="751.4814" xml:space="preserve" y="243.3633" clip-path="url(#clipPath2)" stroke="none">Parameter type is</text>
      <text x="730.4668" xml:space="preserve" y="258.0645" clip-path="url(#clipPath2)" stroke="none">object, class or interface?</text>
    </g>
    <g fill="url(#linearGradient4)" text-rendering="geometricPrecision" shape-rendering="geometricPrecision" transform="matrix(1,0,0,1,-497,-85)" stroke="url(#linearGradient4)">
      <path d="M1242 207 L1324.5 246 L1242 285 L1159.5 246 Z" stroke="none" clip-path="url(#clipPath2)"/>
    </g>
    <g text-rendering="geometricPrecision" stroke-miterlimit="1.45" shape-rendering="geometricPrecision" font-family="sans-serif" transform="matrix(1,0,0,1,-497,-85)" stroke-linecap="butt">
      <text x="1191.3105" xml:space="preserve" y="243.3633" clip-path="url(#clipPath2)" stroke="none">Variadic parameter</text>
      <text x="1186.3008" xml:space="preserve" y="258.0645" clip-path="url(#clipPath2)" stroke="none">and array argument?</text>
    </g>
    <g fill="url(#linearGradient5)" text-rendering="geometricPrecision" shape-rendering="geometricPrecision" transform="matrix(1,0,0,1,-497,-85)" stroke="url(#linearGradient5)">
      <rect x="1375.5" y="216.5" clip-path="url(#clipPath2)" width="165" rx="29.5" ry="29.5" height="59" stroke="none"/>
    </g>
    <g stroke-linecap="round" transform="matrix(1,0,0,1,-497,-85)" stroke-dashoffset="2" text-rendering="geometricPrecision" shape-rendering="geometricPrecision" stroke-dasharray="0,4" stroke-miterlimit="1.45">
      <rect x="1375.5" y="216.5" clip-path="url(#clipPath2)" fill="none" width="165" rx="29.5" ry="29.5" height="59"/>
    </g>
    <g text-rendering="geometricPrecision" stroke-miterlimit="1.45" shape-rendering="geometricPrecision" font-family="sans-serif" transform="matrix(1,0,0,1,-497,-85)" stroke-linecap="butt">
      <text x="1410.9727" xml:space="preserve" y="243.3633" clip-path="url(#clipPath2)" stroke="none">Expand array into</text>
      <text x="1401.6387" xml:space="preserve" y="258.0645" clip-path="url(#clipPath2)" stroke="none">arguments, use them</text>
    </g>
    <g fill="url(#linearGradient6)" text-rendering="geometricPrecision" shape-rendering="geometricPrecision" transform="matrix(1,0,0,1,-497,-85)" stroke="url(#linearGradient6)">
      <rect x="1159.5" y="332.25" clip-path="url(#clipPath2)" width="165" rx="20" ry="20" height="40" stroke="none"/>
    </g>
    <g stroke-linecap="round" transform="matrix(1,0,0,1,-497,-85)" stroke-dashoffset="2" text-rendering="geometricPrecision" shape-rendering="geometricPrecision" stroke-dasharray="0,4" stroke-miterlimit="1.45">
      <rect x="1159.5" y="332.25" clip-path="url(#clipPath2)" fill="none" width="165" rx="20" ry="20" height="40"/>
    </g>
    <g text-rendering="geometricPrecision" stroke-miterlimit="1.45" shape-rendering="geometricPrecision" font-family="sans-serif" transform="matrix(1,0,0,1,-497,-85)" stroke-linecap="butt">
      <text x="1226.6631" xml:space="preserve" y="356.9639" clip-path="url(#clipPath2)" stroke="none">Use it</text>
    </g>
    <g fill="url(#linearGradient7)" text-rendering="geometricPrecision" shape-rendering="geometricPrecision" transform="matrix(1,0,0,1,-497,-85)" stroke="url(#linearGradient7)">
      <path d="M1017 488.5 L1110.5 534.5 L1017 580.5 L923.5 534.5 Z" stroke="none" clip-path="url(#clipPath2)"/>
    </g>
    <g text-rendering="geometricPrecision" stroke-miterlimit="1.45" shape-rendering="geometricPrecision" font-family="sans-serif" transform="matrix(1,0,0,1,-497,-85)" stroke-linecap="butt">
      <text x="970.3037" xml:space="preserve" y="531.8633" clip-path="url(#clipPath2)" stroke="none">Is there unnamed</text>
      <text x="957.6328" xml:space="preserve" y="546.5645" clip-path="url(#clipPath2)" stroke="none">argument of this type?</text>
    </g>
    <g fill="url(#linearGradient8)" text-rendering="geometricPrecision" shape-rendering="geometricPrecision" transform="matrix(1,0,0,1,-497,-85)" stroke="url(#linearGradient8)">
      <rect x="1159.5" y="514.5" clip-path="url(#clipPath2)" width="165" rx="20" ry="20" height="40" stroke="none"/>
    </g>
    <g stroke-linecap="round" transform="matrix(1,0,0,1,-497,-85)" stroke-dashoffset="2" text-rendering="geometricPrecision" shape-rendering="geometricPrecision" stroke-dasharray="0,4" stroke-miterlimit="1.45">
      <rect x="1159.5" y="514.5" clip-path="url(#clipPath2)" fill="none" width="165" rx="20" ry="20" height="40"/>
    </g>
    <g text-rendering="geometricPrecision" stroke-miterlimit="1.45" shape-rendering="geometricPrecision" font-family="sans-serif" transform="matrix(1,0,0,1,-497,-85)" stroke-linecap="butt">
      <text x="1226.6631" xml:space="preserve" y="539.2139" clip-path="url(#clipPath2)" stroke="none">Use it</text>
    </g>
    <g fill="url(#linearGradient9)" text-rendering="geometricPrecision" shape-rendering="geometricPrecision" transform="matrix(1,0,0,1,-497,-85)" stroke="url(#linearGradient9)">
      <path d="M1017 380.5 L1110.25 419.5 L1017 458.5 L923.75 419.5 Z" stroke="none" clip-path="url(#clipPath2)"/>
    </g>
    <g text-rendering="geometricPrecision" stroke-miterlimit="1.45" shape-rendering="geometricPrecision" font-family="sans-serif" transform="matrix(1,0,0,1,-497,-85)" stroke-linecap="butt">
      <text x="962.9736" xml:space="preserve" y="424.2139" clip-path="url(#clipPath2)" stroke="none">Variadic parameter?</text>
    </g>
    <g fill="url(#linearGradient10)" text-rendering="geometricPrecision" shape-rendering="geometricPrecision" transform="matrix(1,0,0,1,-497,-85)" stroke="url(#linearGradient10)">
      <rect x="1159.5" y="387.5" clip-path="url(#clipPath2)" width="165" rx="35" ry="35" height="70" stroke="none"/>
    </g>
    <g stroke-linecap="round" transform="matrix(1,0,0,1,-497,-85)" stroke-dashoffset="2" text-rendering="geometricPrecision" shape-rendering="geometricPrecision" stroke-dasharray="0,4" stroke-miterlimit="1.45">
      <rect x="1159.5" y="387.5" clip-path="url(#clipPath2)" fill="none" width="165" rx="35" ry="35" height="70"/>
    </g>
    <g text-rendering="geometricPrecision" stroke-miterlimit="1.45" shape-rendering="geometricPrecision" font-family="sans-serif" transform="matrix(1,0,0,1,-497,-85)" stroke-linecap="butt">
      <text x="1196.9736" xml:space="preserve" y="419.8633" clip-path="url(#clipPath2)" stroke="none">Use all unnamed</text>
      <text x="1182.9697" xml:space="preserve" y="434.5645" clip-path="url(#clipPath2)" stroke="none">arguments of this type</text>
    </g>
    <g fill="url(#linearGradient11)" text-rendering="geometricPrecision" shape-rendering="geometricPrecision" transform="matrix(1,0,0,1,-497,-85)" stroke="url(#linearGradient11)">
      <path d="M1017 618.5 L1110.5 649 L1017 679.5 L923.5 649 Z" stroke="none" clip-path="url(#clipPath2)"/>
    </g>
    <g text-rendering="geometricPrecision" stroke-miterlimit="1.45" shape-rendering="geometricPrecision" font-family="sans-serif" transform="matrix(1,0,0,1,-497,-85)" stroke-linecap="butt">
      <text x="971.6396" xml:space="preserve" y="653.7139" clip-path="url(#clipPath2)" stroke="none">Container has it?</text>
    </g>
    <g fill="url(#linearGradient12)" text-rendering="geometricPrecision" shape-rendering="geometricPrecision" transform="matrix(1,0,0,1,-497,-85)" stroke="url(#linearGradient12)">
      <path d="M1017 717.5 L1110.5 756.5 L1017 795.5 L923.5 756.5 Z" stroke="none" clip-path="url(#clipPath2)"/>
    </g>
    <g text-rendering="geometricPrecision" stroke-miterlimit="1.45" shape-rendering="geometricPrecision" font-family="sans-serif" transform="matrix(1,0,0,1,-497,-85)" stroke-linecap="butt">
      <text x="957.9609" xml:space="preserve" y="761.2139" clip-path="url(#clipPath2)" stroke="none">Is there default value?</text>
    </g>
    <g fill="url(#linearGradient13)" text-rendering="geometricPrecision" shape-rendering="geometricPrecision" transform="matrix(1,0,0,1,-497,-85)" stroke="url(#linearGradient13)">
      <path d="M1017 833.5 L1110.5 853.5 L1017 873.5 L923.5 853.5 Z" stroke="none" clip-path="url(#clipPath2)"/>
    </g>
    <g text-rendering="geometricPrecision" stroke-miterlimit="1.45" shape-rendering="geometricPrecision" font-family="sans-serif" transform="matrix(1,0,0,1,-497,-85)" stroke-linecap="butt">
      <text x="992.9795" xml:space="preserve" y="858.2139" clip-path="url(#clipPath2)" stroke="none">nullable?</text>
    </g>
    <g fill="url(#linearGradient14)" text-rendering="geometricPrecision" shape-rendering="geometricPrecision" transform="matrix(1,0,0,1,-497,-85)" stroke="url(#linearGradient14)">
      <rect x="1159.5" y="629" clip-path="url(#clipPath2)" width="165" rx="20" ry="20" height="40" stroke="none"/>
    </g>
    <g stroke-linecap="round" transform="matrix(1,0,0,1,-497,-85)" stroke-dashoffset="2" text-rendering="geometricPrecision" shape-rendering="geometricPrecision" stroke-dasharray="0,4" stroke-miterlimit="1.45">
      <rect x="1159.5" y="629" clip-path="url(#clipPath2)" fill="none" width="165" rx="20" ry="20" height="40"/>
    </g>
    <g text-rendering="geometricPrecision" stroke-miterlimit="1.45" shape-rendering="geometricPrecision" font-family="sans-serif" transform="matrix(1,0,0,1,-497,-85)" stroke-linecap="butt">
      <text x="1191.3135" xml:space="preserve" y="653.7139" clip-path="url(#clipPath2)" stroke="none">Use from container</text>
    </g>
    <g fill="url(#linearGradient15)" text-rendering="geometricPrecision" shape-rendering="geometricPrecision" transform="matrix(1,0,0,1,-497,-85)" stroke="url(#linearGradient15)">
      <rect x="1159.5" y="736.5" clip-path="url(#clipPath2)" width="165" rx="20" ry="20" height="40" stroke="none"/>
    </g>
    <g stroke-linecap="round" transform="matrix(1,0,0,1,-497,-85)" stroke-dashoffset="2" text-rendering="geometricPrecision" shape-rendering="geometricPrecision" stroke-dasharray="0,4" stroke-miterlimit="1.45">
      <rect x="1159.5" y="736.5" clip-path="url(#clipPath2)" fill="none" width="165" rx="20" ry="20" height="40"/>
    </g>
    <g text-rendering="geometricPrecision" stroke-miterlimit="1.45" shape-rendering="geometricPrecision" font-family="sans-serif" transform="matrix(1,0,0,1,-497,-85)" stroke-linecap="butt">
      <text x="1211.6484" xml:space="preserve" y="761.2139" clip-path="url(#clipPath2)" stroke="none">Use default</text>
    </g>
    <g fill="url(#linearGradient16)" text-rendering="geometricPrecision" shape-rendering="geometricPrecision" transform="matrix(1,0,0,1,-497,-85)" stroke="url(#linearGradient16)">
      <rect x="958.5" y="911.5" clip-path="url(#clipPath2)" width="117" rx="20" ry="20" height="40" stroke="none"/>
    </g>
    <g stroke-linecap="round" transform="matrix(1,0,0,1,-497,-85)" stroke-dashoffset="2" text-rendering="geometricPrecision" shape-rendering="geometricPrecision" stroke-dasharray="0,12" stroke-width="3" stroke-miterlimit="1.45">
      <rect x="958.5" y="911.5" clip-path="url(#clipPath2)" fill="none" width="117" rx="20" ry="20" height="40"/>
    </g>
    <g stroke-linecap="butt" transform="matrix(1,0,0,1,-497,-85)" fill="white" text-rendering="geometricPrecision" font-family="sans-serif" shape-rendering="geometricPrecision" stroke="white" stroke-miterlimit="1.45">
      <text x="990.6504" xml:space="preserve" y="936.2139" clip-path="url(#clipPath2)" stroke="none">Exception</text>
    </g>
    <g fill="url(#linearGradient17)" text-rendering="geometricPrecision" shape-rendering="geometricPrecision" transform="matrix(1,0,0,1,-497,-85)" stroke="url(#linearGradient17)">
      <rect x="1159.5" y="833.5" clip-path="url(#clipPath2)" width="165" rx="20" ry="20" height="40" stroke="none"/>
    </g>
    <g stroke-linecap="round" transform="matrix(1,0,0,1,-497,-85)" stroke-dashoffset="2" text-rendering="geometricPrecision" shape-rendering="geometricPrecision" stroke-dasharray="0,4" stroke-miterlimit="1.45">
      <rect x="1159.5" y="833.5" clip-path="url(#clipPath2)" fill="none" width="165" rx="20" ry="20" height="40"/>
    </g>
    <g text-rendering="geometricPrecision" stroke-miterlimit="1.45" shape-rendering="geometricPrecision" font-family="sans-serif" transform="matrix(1,0,0,1,-497,-85)" stroke-linecap="butt">
      <text x="1220.3232" xml:space="preserve" y="858.2139" clip-path="url(#clipPath2)" stroke="none">Use null</text>
    </g>
    <g fill="url(#linearGradient18)" text-rendering="geometricPrecision" shape-rendering="geometricPrecision" transform="matrix(1,0,0,1,-497,-85)" stroke="url(#linearGradient18)">
      <path d="M624.5 380.5 L736.5 426.5 L624.5 472.5 L512.5 426.5 Z" stroke="none" clip-path="url(#clipPath2)"/>
    </g>
    <g text-rendering="geometricPrecision" stroke-miterlimit="1.45" shape-rendering="geometricPrecision" font-family="sans-serif" transform="matrix(1,0,0,1,-497,-85)" stroke-linecap="butt">
      <text x="575.8115" xml:space="preserve" y="423.8633" clip-path="url(#clipPath2)" stroke="none">Parameter without</text>
      <text x="548.7881" xml:space="preserve" y="438.5645" clip-path="url(#clipPath2)" stroke="none">type and variadic argument?</text>
    </g>
    <g fill="url(#linearGradient19)" text-rendering="geometricPrecision" shape-rendering="geometricPrecision" transform="matrix(1,0,0,1,-497,-85)" stroke="url(#linearGradient19)">
      <rect x="766.5" y="396" clip-path="url(#clipPath2)" width="151" rx="30.5" ry="30.5" height="61" stroke="none"/>
    </g>
    <g stroke-linecap="round" transform="matrix(1,0,0,1,-497,-85)" stroke-dashoffset="2" text-rendering="geometricPrecision" shape-rendering="geometricPrecision" stroke-dasharray="0,4" stroke-miterlimit="1.45">
      <rect x="766.5" y="396" clip-path="url(#clipPath2)" fill="none" width="151" rx="30.5" ry="30.5" height="61"/>
    </g>
    <g text-rendering="geometricPrecision" stroke-miterlimit="1.45" shape-rendering="geometricPrecision" font-family="sans-serif" transform="matrix(1,0,0,1,-497,-85)" stroke-linecap="butt">
      <text x="796.9736" xml:space="preserve" y="423.8633" clip-path="url(#clipPath2)" stroke="none">Use all unnamed</text>
      <text x="813.6523" xml:space="preserve" y="438.5645" clip-path="url(#clipPath2)" stroke="none">arguments</text>
    </g>
    <g text-rendering="geometricPrecision" stroke-miterlimit="1.45" shape-rendering="geometricPrecision" transform="matrix(1,0,0,1,-497,-85)" stroke-linecap="butt">
      <path fill="none" d="M1017 160.9823 L1017 199.0197" clip-path="url(#clipPath2)"/>
    </g>
    <g text-rendering="geometricPrecision" stroke-miterlimit="1.45" shape-rendering="geometricPrecision" transform="matrix(1,0,0,1,-497,-85)" stroke-linecap="butt">
      <path d="M1017 207.0197 L1022 195.0197 L1017 198.0197 L1012 195.0197 Z" stroke="none" clip-path="url(#clipPath2)"/>
      <path fill="none" d="M931.9952 246 L902.0053 246" stroke-width="3" clip-path="url(#clipPath2)" stroke="rgb(153,51,0)"/>
      <path fill="rgb(153,51,0)" d="M892.0053 246 L907.0053 252.25 L903.2553 246 L907.0053 239.75 Z" stroke-width="3" clip-path="url(#clipPath2)" stroke="none"/>
      <path fill="none" d="M1102.0067 246 L1149.5283 246" stroke-width="3" clip-path="url(#clipPath2)" stroke="green"/>
      <path fill="green" d="M1159.5283 246 L1144.5283 239.75 L1148.2783 246 L1144.5283 252.25 Z" stroke-width="3" clip-path="url(#clipPath2)" stroke="none"/>
      <path fill="none" d="M1324.5029 246 L1365.5095 246" stroke-width="3" clip-path="url(#clipPath2)" stroke="green"/>
      <path fill="green" d="M1375.5095 246 L1360.5095 239.75 L1364.2595 246 L1360.5095 252.25 Z" stroke-width="3" clip-path="url(#clipPath2)" stroke="none"/>
      <path fill="none" d="M1242 284.9877 L1242 322.2487" stroke-width="3" clip-path="url(#clipPath2)" stroke="rgb(153,51,0)"/>
      <path fill="rgb(153,51,0)" d="M1242 332.2487 L1248.25 317.2487 L1242 320.9987 L1235.75 317.2487 Z" stroke-width="3" clip-path="url(#clipPath2)" stroke="none"/>
      <path fill="none" d="M1110.5211 534.5 L1149.4727 534.5" stroke-width="3" clip-path="url(#clipPath2)" stroke="green"/>
      <path fill="green" d="M1159.4727 534.5 L1144.4727 528.25 L1148.2227 534.5 L1144.4727 540.75 Z" stroke-width="3" clip-path="url(#clipPath2)" stroke="none"/>
      <path fill="none" d="M830.6935 271.5633 L976.988 387.7285" stroke-width="3" clip-path="url(#clipPath2)" stroke="green"/>
      <path fill="green" d="M984.8194 393.947 L976.9589 379.7246 L976.0091 386.9511 L969.1858 389.5138 Z" stroke-width="3" clip-path="url(#clipPath2)" stroke="none"/>
      <path fill="none" d="M1017 458.4978 L1017 478.5201" stroke-width="3" clip-path="url(#clipPath2)" stroke="rgb(153,51,0)"/>
      <path fill="rgb(153,51,0)" d="M1017 488.5201 L1023.25 473.5201 L1017 477.2701 L1010.75 473.5201 Z" stroke-width="3" clip-path="url(#clipPath2)" stroke="none"/>
      <path fill="none" d="M1107.39 420.7052 L1149.5457 421.2673" stroke-width="3" clip-path="url(#clipPath2)" stroke="green"/>
      <path fill="green" d="M1159.5448 421.4006 L1144.6295 414.9512 L1148.2958 421.2506 L1144.4628 427.45 Z" stroke-width="3" clip-path="url(#clipPath2)" stroke="none"/>
      <path fill="none" d="M1017 580.4845 L1017 608.5226" stroke-width="3" clip-path="url(#clipPath2)" stroke="rgb(153,51,0)"/>
      <path fill="rgb(153,51,0)" d="M1017 618.5226 L1023.25 603.5226 L1017 607.2726 L1010.75 603.5226 Z" stroke-width="3" clip-path="url(#clipPath2)" stroke="none"/>
      <path fill="none" d="M1017 679.5231 L1017 707.5229" stroke-width="3" clip-path="url(#clipPath2)" stroke="rgb(153,51,0)"/>
      <path fill="rgb(153,51,0)" d="M1017 717.5229 L1023.25 702.5229 L1017 706.2729 L1010.75 702.5229 Z" stroke-width="3" clip-path="url(#clipPath2)" stroke="none"/>
      <path fill="none" d="M1017 795.48 L1017 823.5273" stroke-width="3" clip-path="url(#clipPath2)" stroke="rgb(153,51,0)"/>
      <path fill="rgb(153,51,0)" d="M1017 833.5273 L1023.25 818.5273 L1017 822.2773 L1010.75 818.5273 Z" stroke-width="3" clip-path="url(#clipPath2)" stroke="none"/>
      <path fill="none" d="M1110.5211 649 L1149.4727 649" stroke-width="3" clip-path="url(#clipPath2)" stroke="green"/>
      <path fill="green" d="M1159.4727 649 L1144.4727 642.75 L1148.2227 649 L1144.4727 655.25 Z" stroke-width="3" clip-path="url(#clipPath2)" stroke="none"/>
      <path fill="none" d="M1110.5211 756.5 L1149.4727 756.5" stroke-width="3" clip-path="url(#clipPath2)" stroke="green"/>
      <path fill="green" d="M1159.4727 756.5 L1144.4727 750.25 L1148.2227 756.5 L1144.4727 762.75 Z" stroke-width="3" clip-path="url(#clipPath2)" stroke="none"/>
      <path fill="none" d="M1017 873.4951 L1017 901.4758" stroke-width="3" clip-path="url(#clipPath2)" stroke="rgb(153,51,0)"/>
      <path fill="rgb(153,51,0)" d="M1017 911.4758 L1023.25 896.4758 L1017 900.2258 L1010.75 896.4758 Z" stroke-width="3" clip-path="url(#clipPath2)" stroke="none"/>
      <path fill="none" d="M1110.5211 853.5 L1149.4727 853.5" stroke-width="3" clip-path="url(#clipPath2)" stroke="green"/>
      <path fill="green" d="M1159.4727 853.5 L1144.4727 847.25 L1148.2227 853.5 L1144.4727 859.75 Z" stroke-width="3" clip-path="url(#clipPath2)" stroke="none"/>
      <path fill="none" d="M771.6736 273.8286 L663.2213 386.3322" stroke-width="3" clip-path="url(#clipPath2)" stroke="rgb(153,51,0)"/>
      <path fill="rgb(153,51,0)" d="M656.281 393.5318 L671.191 387.0701 L664.0888 385.4323 L662.1917 378.3948 Z" stroke-width="3" clip-path="url(#clipPath2)" stroke="none"/>
      <path fill="none" d="M624.5 472.4631 L624.5 756.5 L913.5225 756.5" stroke-width="3" clip-path="url(#clipPath2)" stroke="rgb(153,51,0)"/>
      <path fill="rgb(153,51,0)" d="M923.5225 756.5 L908.5225 750.25 L912.2725 756.5 L908.5225 762.75 Z" stroke-width="3" clip-path="url(#clipPath2)" stroke="none"/>
      <path fill="none" d="M736.5157 426.5 L756.5179 426.5" stroke-width="3" clip-path="url(#clipPath2)" stroke="green"/>
      <path fill="green" d="M766.5179 426.5 L751.5179 420.25 L755.2679 426.5 L751.5179 432.75 Z" stroke-width="3" clip-path="url(#clipPath2)" stroke="none"/>
    </g>
  </g>
</svg>
