<?xml version="1.0" encoding="UTF-8"?><svg xmlns="http://www.w3.org/2000/svg" xmlns:xlink="http://www.w3.org/1999/xlink" fill-opacity="1" color-rendering="auto" color-interpolation="auto" text-rendering="auto" stroke="black" stroke-linecap="square" width="1054" stroke-miterlimit="10" shape-rendering="auto" stroke-opacity="1" fill="black" stroke-dasharray="none" font-weight="normal" stroke-width="1" height="1038" font-family="'Dialog'" font-style="normal" stroke-linejoin="miter" font-size="12px" stroke-dashoffset="0" image-rendering="auto">
  <!--Generated by ySVG 2.5-->
  <defs id="genericDefs"/>
  <g>
    <defs id="defs1">
      <linearGradient x1="616.5" gradientUnits="userSpaceOnUse" x2="803.5" y1="-20" y2="41" id="linearGradient1" spreadMethod="reflect">
        <stop stop-opacity="1" stop-color="rgb(232,238,247)" offset="0%"/>
        <stop stop-opacity="1" stop-color="rgb(183,201,227)" offset="100%"/>
      </linearGradient>
      <linearGradient x1="625" gradientUnits="userSpaceOnUse" x2="795" y1="87" y2="165" id="linearGradient2" spreadMethod="reflect">
        <stop stop-opacity="1" stop-color="rgb(255,204,153)" offset="0%"/>
        <stop stop-opacity="1" stop-color="rgb(255,204,153)" offset="100%"/>
      </linearGradient>
      <linearGradient x1="616.5" gradientUnits="userSpaceOnUse" x2="803.5" y1="380.5" y2="458.5" id="linearGradient3" spreadMethod="reflect">
        <stop stop-opacity="1" stop-color="rgb(255,204,153)" offset="0%"/>
        <stop stop-opacity="1" stop-color="rgb(255,204,153)" offset="100%"/>
      </linearGradient>
      <linearGradient x1="1034.5" gradientUnits="userSpaceOnUse" x2="1199.5" y1="155.5" y2="233.5" id="linearGradient4" spreadMethod="reflect">
        <stop stop-opacity="1" stop-color="rgb(255,204,153)" offset="0%"/>
        <stop stop-opacity="1" stop-color="rgb(255,204,153)" offset="100%"/>
      </linearGradient>
      <linearGradient x1="1221.5" gradientUnits="userSpaceOnUse" x2="1386.5" y1="244.5" y2="294" id="linearGradient5" spreadMethod="reflect">
        <stop stop-opacity="1" stop-color="rgb(204,255,204)" offset="0%"/>
        <stop stop-opacity="1" stop-color="rgb(204,255,204)" offset="100%"/>
      </linearGradient>
      <linearGradient x1="856.5" gradientUnits="userSpaceOnUse" x2="1021.5" y1="244.5" y2="294" id="linearGradient6" spreadMethod="reflect">
        <stop stop-opacity="1" stop-color="rgb(204,255,204)" offset="0%"/>
        <stop stop-opacity="1" stop-color="rgb(204,255,204)" offset="100%"/>
      </linearGradient>
      <linearGradient x1="882.5" gradientUnits="userSpaceOnUse" x2="1069.5" y1="488.5" y2="580.5" id="linearGradient7" spreadMethod="reflect">
        <stop stop-opacity="1" stop-color="rgb(255,204,153)" offset="0%"/>
        <stop stop-opacity="1" stop-color="rgb(255,204,153)" offset="100%"/>
      </linearGradient>
      <linearGradient x1="1136.5" gradientUnits="userSpaceOnUse" x2="1301.5" y1="484.5" y2="583.5" id="linearGradient8" spreadMethod="reflect">
        <stop stop-opacity="1" stop-color="rgb(204,255,204)" offset="0%"/>
        <stop stop-opacity="1" stop-color="rgb(204,255,204)" offset="100%"/>
      </linearGradient>
      <linearGradient x1="882.75" gradientUnits="userSpaceOnUse" x2="1069.25" y1="380.5" y2="458.5" id="linearGradient9" spreadMethod="reflect">
        <stop stop-opacity="1" stop-color="rgb(255,204,153)" offset="0%"/>
        <stop stop-opacity="1" stop-color="rgb(255,204,153)" offset="100%"/>
      </linearGradient>
      <linearGradient x1="1136.5" gradientUnits="userSpaceOnUse" x2="1301.5" y1="384.5" y2="454.5" id="linearGradient10" spreadMethod="reflect">
        <stop stop-opacity="1" stop-color="rgb(204,255,204)" offset="0%"/>
        <stop stop-opacity="1" stop-color="rgb(204,255,204)" offset="100%"/>
      </linearGradient>
      <linearGradient x1="882.5" gradientUnits="userSpaceOnUse" x2="1069.5" y1="646.5" y2="707.5" id="linearGradient11" spreadMethod="reflect">
        <stop stop-opacity="1" stop-color="rgb(255,204,153)" offset="0%"/>
        <stop stop-opacity="1" stop-color="rgb(255,204,153)" offset="100%"/>
      </linearGradient>
      <linearGradient x1="882.5" gradientUnits="userSpaceOnUse" x2="1069.5" y1="758.5" y2="836.5" id="linearGradient12" spreadMethod="reflect">
        <stop stop-opacity="1" stop-color="rgb(255,204,153)" offset="0%"/>
        <stop stop-opacity="1" stop-color="rgb(255,204,153)" offset="100%"/>
      </linearGradient>
      <linearGradient x1="882.5" gradientUnits="userSpaceOnUse" x2="1069.5" y1="877.5" y2="917.5" id="linearGradient13" spreadMethod="reflect">
        <stop stop-opacity="1" stop-color="rgb(255,204,153)" offset="0%"/>
        <stop stop-opacity="1" stop-color="rgb(255,204,153)" offset="100%"/>
      </linearGradient>
      <linearGradient x1="1136.5" gradientUnits="userSpaceOnUse" x2="1301.5" y1="657" y2="697" id="linearGradient14" spreadMethod="reflect">
        <stop stop-opacity="1" stop-color="rgb(204,255,204)" offset="0%"/>
        <stop stop-opacity="1" stop-color="rgb(204,255,204)" offset="100%"/>
      </linearGradient>
      <linearGradient x1="1136.5" gradientUnits="userSpaceOnUse" x2="1301.5" y1="777.5" y2="817.5" id="linearGradient15" spreadMethod="reflect">
        <stop stop-opacity="1" stop-color="rgb(204,255,204)" offset="0%"/>
        <stop stop-opacity="1" stop-color="rgb(204,255,204)" offset="100%"/>
      </linearGradient>
      <linearGradient x1="917.5" gradientUnits="userSpaceOnUse" x2="1034.5" y1="947.5" y2="987.5" id="linearGradient16" spreadMethod="reflect">
        <stop stop-opacity="1" stop-color="maroon" offset="0%"/>
        <stop stop-opacity="1" stop-color="rgb(153,51,0)" offset="100%"/>
      </linearGradient>
      <linearGradient x1="1136.5" gradientUnits="userSpaceOnUse" x2="1301.5" y1="877.5" y2="917.5" id="linearGradient17" spreadMethod="reflect">
        <stop stop-opacity="1" stop-color="rgb(204,255,204)" offset="0%"/>
        <stop stop-opacity="1" stop-color="rgb(204,255,204)" offset="100%"/>
      </linearGradient>
      <linearGradient x1="598" gradientUnits="userSpaceOnUse" x2="822" y1="615.5" y2="707.5" id="linearGradient18" spreadMethod="reflect">
        <stop stop-opacity="1" stop-color="rgb(255,204,153)" offset="0%"/>
        <stop stop-opacity="1" stop-color="rgb(255,204,153)" offset="100%"/>
      </linearGradient>
      <linearGradient x1="363.5" gradientUnits="userSpaceOnUse" x2="514.5" y1="631" y2="692" id="linearGradient19" spreadMethod="reflect">
        <stop stop-opacity="1" stop-color="rgb(204,255,204)" offset="0%"/>
        <stop stop-opacity="1" stop-color="rgb(204,255,204)" offset="100%"/>
      </linearGradient>
      <clipPath clipPathUnits="userSpaceOnUse" id="clipPath1">
        <path d="M0 0 L1054 0 L1054 1038 L0 1038 L0 0 Z"/>
      </clipPath>
      <clipPath clipPathUnits="userSpaceOnUse" id="clipPath2">
        <path d="M348 -35 L1402 -35 L1402 1003 L348 1003 L348 -35 Z"/>
      </clipPath>
    </defs>
    <g fill="white" text-rendering="geometricPrecision" shape-rendering="geometricPrecision" transform="translate(-348,35)" stroke="white">
      <rect x="348" width="1054" height="1038" y="-35" clip-path="url(#clipPath2)" stroke="none"/>
    </g>
    <g fill="url(#linearGradient1)" text-rendering="geometricPrecision" shape-rendering="geometricPrecision" transform="matrix(1,0,0,1,-348,35)" stroke="url(#linearGradient1)">
      <ellipse rx="93.5" ry="30.5" clip-path="url(#clipPath2)" cx="710" cy="10.5" stroke="none"/>
    </g>
    <g text-rendering="geometricPrecision" stroke-miterlimit="1.45" shape-rendering="geometricPrecision" font-family="sans-serif" transform="matrix(1,0,0,1,-348,35)" stroke-linecap="butt">
      <text x="657.3096" xml:space="preserve" y="15.2139" clip-path="url(#clipPath2)" stroke="none">For each parameter</text>
    </g>
    <g fill="url(#linearGradient2)" text-rendering="geometricPrecision" shape-rendering="geometricPrecision" transform="matrix(1,0,0,1,-348,35)" stroke="url(#linearGradient2)">
      <path d="M710 87 L795 126 L710 165 L625 126 Z" stroke="none" clip-path="url(#clipPath2)"/>
    </g>
    <g text-rendering="geometricPrecision" stroke-miterlimit="1.45" shape-rendering="geometricPrecision" font-family="sans-serif" transform="matrix(1,0,0,1,-348,35)" stroke-linecap="butt">
      <text x="655.9707" xml:space="preserve" y="123.3633" clip-path="url(#clipPath2)" stroke="none">$arguments has key</text>
      <text x="650.3047" xml:space="preserve" y="138.0645" clip-path="url(#clipPath2)" stroke="none">with parameter name?</text>
    </g>
    <g fill="url(#linearGradient3)" text-rendering="geometricPrecision" shape-rendering="geometricPrecision" transform="matrix(1,0,0,1,-348,35)" stroke="url(#linearGradient3)">
      <path d="M710 380.5 L803.5 419.5 L710 458.5 L616.5 419.5 Z" stroke="none" clip-path="url(#clipPath2)"/>
    </g>
    <g text-rendering="geometricPrecision" stroke-miterlimit="1.45" shape-rendering="geometricPrecision" font-family="sans-serif" transform="matrix(1,0,0,1,-348,35)" stroke-linecap="butt">
      <text x="649.3027" xml:space="preserve" y="416.8633" clip-path="url(#clipPath2)" stroke="none">Parameter declared as</text>
      <text x="650.6357" xml:space="preserve" y="431.5645" clip-path="url(#clipPath2)" stroke="none">object/class/interface?</text>
    </g>
    <g fill="url(#linearGradient4)" text-rendering="geometricPrecision" shape-rendering="geometricPrecision" transform="matrix(1,0,0,1,-348,35)" stroke="url(#linearGradient4)">
      <path d="M1117 155.5 L1199.5 194.5 L1117 233.5 L1034.5 194.5 Z" stroke="none" clip-path="url(#clipPath2)"/>
    </g>
    <g text-rendering="geometricPrecision" stroke-miterlimit="1.45" shape-rendering="geometricPrecision" font-family="sans-serif" transform="matrix(1,0,0,1,-348,35)" stroke-linecap="butt">
      <text x="1082.9893" xml:space="preserve" y="184.5127" clip-path="url(#clipPath2)" stroke="none">Parameter is</text>
      <text x="1051.2959" xml:space="preserve" y="199.2139" clip-path="url(#clipPath2)" stroke="none">variadic and $arguments</text>
      <text x="1077.9824" xml:space="preserve" y="213.915" clip-path="url(#clipPath2)" stroke="none">value is array?</text>
    </g>
    <g fill="url(#linearGradient5)" text-rendering="geometricPrecision" shape-rendering="geometricPrecision" transform="matrix(1,0,0,1,-348,35)" stroke="url(#linearGradient5)">
      <rect x="1221.5" y="244.5" clip-path="url(#clipPath2)" width="165" rx="24.75" ry="24.75" height="49.5" stroke="none"/>
    </g>
    <g stroke-linecap="round" transform="matrix(1,0,0,1,-348,35)" stroke-dashoffset="2" text-rendering="geometricPrecision" shape-rendering="geometricPrecision" stroke-dasharray="0,4" stroke-miterlimit="1.45">
      <rect x="1221.5" y="244.5" clip-path="url(#clipPath2)" fill="none" width="165" rx="24.75" ry="24.75" height="49.5"/>
    </g>
    <g text-rendering="geometricPrecision" stroke-miterlimit="1.45" shape-rendering="geometricPrecision" font-family="sans-serif" transform="matrix(1,0,0,1,-348,35)" stroke-linecap="butt">
      <text x="1265.3047" xml:space="preserve" y="266.6133" clip-path="url(#clipPath2)" stroke="none">Use expanded</text>
      <text x="1256.3047" xml:space="preserve" y="281.3145" clip-path="url(#clipPath2)" stroke="none">$arguments value</text>
    </g>
    <g fill="url(#linearGradient6)" text-rendering="geometricPrecision" shape-rendering="geometricPrecision" transform="matrix(1,0,0,1,-348,35)" stroke="url(#linearGradient6)">
      <rect x="856.5" y="244.5" clip-path="url(#clipPath2)" width="165" rx="24.75" ry="24.75" height="49.5" stroke="none"/>
    </g>
    <g stroke-linecap="round" transform="matrix(1,0,0,1,-348,35)" stroke-dashoffset="2" text-rendering="geometricPrecision" shape-rendering="geometricPrecision" stroke-dasharray="0,4" stroke-miterlimit="1.45">
      <rect x="856.5" y="244.5" clip-path="url(#clipPath2)" fill="none" width="165" rx="24.75" ry="24.75" height="49.5"/>
    </g>
    <g text-rendering="geometricPrecision" stroke-miterlimit="1.45" shape-rendering="geometricPrecision" font-family="sans-serif" transform="matrix(1,0,0,1,-348,35)" stroke-linecap="butt">
      <text x="878.9678" xml:space="preserve" y="273.9639" clip-path="url(#clipPath2)" stroke="none">Use $arguments value</text>
    </g>
    <g fill="url(#linearGradient7)" text-rendering="geometricPrecision" shape-rendering="geometricPrecision" transform="matrix(1,0,0,1,-348,35)" stroke="url(#linearGradient7)">
      <path d="M976 488.5 L1069.5 534.5 L976 580.5 L882.5 534.5 Z" stroke="none" clip-path="url(#clipPath2)"/>
    </g>
    <g text-rendering="geometricPrecision" stroke-miterlimit="1.45" shape-rendering="geometricPrecision" font-family="sans-serif" transform="matrix(1,0,0,1,-348,35)" stroke-linecap="butt">
      <text x="944.3154" xml:space="preserve" y="524.5127" clip-path="url(#clipPath2)" stroke="none">$arguments</text>
      <text x="904.6211" xml:space="preserve" y="539.2139" clip-path="url(#clipPath2)" stroke="none">contains object of that type</text>
      <text x="925.9727" xml:space="preserve" y="553.915" clip-path="url(#clipPath2)" stroke="none">without name key?</text>
    </g>
    <g fill="url(#linearGradient8)" text-rendering="geometricPrecision" shape-rendering="geometricPrecision" transform="matrix(1,0,0,1,-348,35)" stroke="url(#linearGradient8)">
      <rect x="1136.5" y="484.5" clip-path="url(#clipPath2)" width="165" rx="49.5" ry="49.5" height="99" stroke="none"/>
    </g>
    <g stroke-linecap="round" transform="matrix(1,0,0,1,-348,35)" stroke-dashoffset="2" text-rendering="geometricPrecision" shape-rendering="geometricPrecision" stroke-dasharray="0,4" stroke-miterlimit="1.45">
      <rect x="1136.5" y="484.5" clip-path="url(#clipPath2)" fill="none" width="165" rx="49.5" ry="49.5" height="99"/>
    </g>
    <g text-rendering="geometricPrecision" stroke-miterlimit="1.45" shape-rendering="geometricPrecision" font-family="sans-serif" transform="matrix(1,0,0,1,-348,35)" stroke-linecap="butt">
      <text x="1190.6523" xml:space="preserve" y="509.3115" clip-path="url(#clipPath2)" stroke="none">Use object</text>
      <text x="1173.6484" xml:space="preserve" y="524.0127" clip-path="url(#clipPath2)" stroke="none">from $arguments</text>
      <text x="1151.626" xml:space="preserve" y="538.7139" clip-path="url(#clipPath2)" stroke="none">(In order of appearance if</text>
      <text x="1141.627" xml:space="preserve" y="553.415" clip-path="url(#clipPath2)" stroke="none">multiple parameters have the</text>
      <text x="1189.3223" xml:space="preserve" y="568.1162" clip-path="url(#clipPath2)" stroke="none">same type)</text>
    </g>
    <g fill="url(#linearGradient9)" text-rendering="geometricPrecision" shape-rendering="geometricPrecision" transform="matrix(1,0,0,1,-348,35)" stroke="url(#linearGradient9)">
      <path d="M976 380.5 L1069.25 419.5 L976 458.5 L882.75 419.5 Z" stroke="none" clip-path="url(#clipPath2)"/>
    </g>
    <g text-rendering="geometricPrecision" stroke-miterlimit="1.45" shape-rendering="geometricPrecision" font-family="sans-serif" transform="matrix(1,0,0,1,-348,35)" stroke-linecap="butt">
      <text x="916.3105" xml:space="preserve" y="424.2139" clip-path="url(#clipPath2)" stroke="none">Parameter is variadic?</text>
    </g>
    <g fill="url(#linearGradient10)" text-rendering="geometricPrecision" shape-rendering="geometricPrecision" transform="matrix(1,0,0,1,-348,35)" stroke="url(#linearGradient10)">
      <rect x="1136.5" y="384.5" clip-path="url(#clipPath2)" width="165" rx="35" ry="35" height="70" stroke="none"/>
    </g>
    <g stroke-linecap="round" transform="matrix(1,0,0,1,-348,35)" stroke-dashoffset="2" text-rendering="geometricPrecision" shape-rendering="geometricPrecision" stroke-dasharray="0,4" stroke-miterlimit="1.45">
      <rect x="1136.5" y="384.5" clip-path="url(#clipPath2)" fill="none" width="165" rx="35" ry="35" height="70"/>
    </g>
    <g text-rendering="geometricPrecision" stroke-miterlimit="1.45" shape-rendering="geometricPrecision" font-family="sans-serif" transform="matrix(1,0,0,1,-348,35)" stroke-linecap="butt">
      <text x="1166.3154" xml:space="preserve" y="409.5127" clip-path="url(#clipPath2)" stroke="none">Use all objects from</text>
      <text x="1150.2959" xml:space="preserve" y="424.2139" clip-path="url(#clipPath2)" stroke="none">$arguments with that type</text>
      <text x="1181.9746" xml:space="preserve" y="438.915" clip-path="url(#clipPath2)" stroke="none">(can be none)</text>
    </g>
    <g fill="url(#linearGradient11)" text-rendering="geometricPrecision" shape-rendering="geometricPrecision" transform="matrix(1,0,0,1,-348,35)" stroke="url(#linearGradient11)">
      <path d="M976 646.5 L1069.5 677 L976 707.5 L882.5 677 Z" stroke="none" clip-path="url(#clipPath2)"/>
    </g>
    <g text-rendering="geometricPrecision" stroke-miterlimit="1.45" shape-rendering="geometricPrecision" font-family="sans-serif" transform="matrix(1,0,0,1,-348,35)" stroke-linecap="butt">
      <text x="920.9658" xml:space="preserve" y="674.3633" clip-path="url(#clipPath2)" stroke="none">Container has object</text>
      <text x="942.9766" xml:space="preserve" y="689.0645" clip-path="url(#clipPath2)" stroke="none">of that type?</text>
    </g>
    <g fill="url(#linearGradient12)" text-rendering="geometricPrecision" shape-rendering="geometricPrecision" transform="matrix(1,0,0,1,-348,35)" stroke="url(#linearGradient12)">
      <path d="M976 758.5 L1069.5 797.5 L976 836.5 L882.5 797.5 Z" stroke="none" clip-path="url(#clipPath2)"/>
    </g>
    <g text-rendering="geometricPrecision" stroke-miterlimit="1.45" shape-rendering="geometricPrecision" font-family="sans-serif" transform="matrix(1,0,0,1,-348,35)" stroke-linecap="butt">
      <text x="936.6484" xml:space="preserve" y="794.8633" clip-path="url(#clipPath2)" stroke="none">Parameter has</text>
      <text x="933.6338" xml:space="preserve" y="809.5645" clip-path="url(#clipPath2)" stroke="none">a default value?</text>
    </g>
    <g fill="url(#linearGradient13)" text-rendering="geometricPrecision" shape-rendering="geometricPrecision" transform="matrix(1,0,0,1,-348,35)" stroke="url(#linearGradient13)">
      <path d="M976 877.5 L1069.5 897.5 L976 917.5 L882.5 897.5 Z" stroke="none" clip-path="url(#clipPath2)"/>
    </g>
    <g text-rendering="geometricPrecision" stroke-miterlimit="1.45" shape-rendering="geometricPrecision" font-family="sans-serif" transform="matrix(1,0,0,1,-348,35)" stroke-linecap="butt">
      <text x="946.3223" xml:space="preserve" y="894.8633" clip-path="url(#clipPath2)" stroke="none"> Parameter</text>
      <text x="945.9795" xml:space="preserve" y="909.5645" clip-path="url(#clipPath2)" stroke="none">is nullable?</text>
    </g>
    <g fill="url(#linearGradient14)" text-rendering="geometricPrecision" shape-rendering="geometricPrecision" transform="matrix(1,0,0,1,-348,35)" stroke="url(#linearGradient14)">
      <rect x="1136.5" y="657" clip-path="url(#clipPath2)" width="165" rx="20" ry="20" height="40" stroke="none"/>
    </g>
    <g stroke-linecap="round" transform="matrix(1,0,0,1,-348,35)" stroke-dashoffset="2" text-rendering="geometricPrecision" shape-rendering="geometricPrecision" stroke-dasharray="0,4" stroke-miterlimit="1.45">
      <rect x="1136.5" y="657" clip-path="url(#clipPath2)" fill="none" width="165" rx="20" ry="20" height="40"/>
    </g>
    <g text-rendering="geometricPrecision" stroke-miterlimit="1.45" shape-rendering="geometricPrecision" font-family="sans-serif" transform="matrix(1,0,0,1,-348,35)" stroke-linecap="butt">
      <text x="1190.6523" xml:space="preserve" y="674.3633" clip-path="url(#clipPath2)" stroke="none">Use object</text>
      <text x="1180.6504" xml:space="preserve" y="689.0645" clip-path="url(#clipPath2)" stroke="none">from container</text>
    </g>
    <g fill="url(#linearGradient15)" text-rendering="geometricPrecision" shape-rendering="geometricPrecision" transform="matrix(1,0,0,1,-348,35)" stroke="url(#linearGradient15)">
      <rect x="1136.5" y="777.5" clip-path="url(#clipPath2)" width="165" rx="20" ry="20" height="40" stroke="none"/>
    </g>
    <g stroke-linecap="round" transform="matrix(1,0,0,1,-348,35)" stroke-dashoffset="2" text-rendering="geometricPrecision" shape-rendering="geometricPrecision" stroke-dasharray="0,4" stroke-miterlimit="1.45">
      <rect x="1136.5" y="777.5" clip-path="url(#clipPath2)" fill="none" width="165" rx="20" ry="20" height="40"/>
    </g>
    <g text-rendering="geometricPrecision" stroke-miterlimit="1.45" shape-rendering="geometricPrecision" font-family="sans-serif" transform="matrix(1,0,0,1,-348,35)" stroke-linecap="butt">
      <text x="1172.6377" xml:space="preserve" y="802.2139" clip-path="url(#clipPath2)" stroke="none">Use default value</text>
    </g>
    <g fill="url(#linearGradient16)" text-rendering="geometricPrecision" shape-rendering="geometricPrecision" transform="matrix(1,0,0,1,-348,35)" stroke="url(#linearGradient16)">
      <rect x="917.5" y="947.5" clip-path="url(#clipPath2)" width="117" rx="20" ry="20" height="40" stroke="none"/>
    </g>
    <g stroke-linecap="round" transform="matrix(1,0,0,1,-348,35)" stroke-dashoffset="2" text-rendering="geometricPrecision" shape-rendering="geometricPrecision" stroke-dasharray="0,12" stroke-width="3" stroke-miterlimit="1.45">
      <rect x="917.5" y="947.5" clip-path="url(#clipPath2)" fill="none" width="117" rx="20" ry="20" height="40"/>
    </g>
    <g stroke-linecap="butt" transform="matrix(1,0,0,1,-348,35)" fill="white" text-rendering="geometricPrecision" font-family="sans-serif" shape-rendering="geometricPrecision" stroke="white" stroke-miterlimit="1.45">
      <text x="931.9785" xml:space="preserve" y="972.2139" clip-path="url(#clipPath2)" stroke="none">Throw exception</text>
    </g>
    <g fill="url(#linearGradient17)" text-rendering="geometricPrecision" shape-rendering="geometricPrecision" transform="matrix(1,0,0,1,-348,35)" stroke="url(#linearGradient17)">
      <rect x="1136.5" y="877.5" clip-path="url(#clipPath2)" width="165" rx="20" ry="20" height="40" stroke="none"/>
    </g>
    <g stroke-linecap="round" transform="matrix(1,0,0,1,-348,35)" stroke-dashoffset="2" text-rendering="geometricPrecision" shape-rendering="geometricPrecision" stroke-dasharray="0,4" stroke-miterlimit="1.45">
      <rect x="1136.5" y="877.5" clip-path="url(#clipPath2)" fill="none" width="165" rx="20" ry="20" height="40"/>
    </g>
    <g text-rendering="geometricPrecision" stroke-miterlimit="1.45" shape-rendering="geometricPrecision" font-family="sans-serif" transform="matrix(1,0,0,1,-348,35)" stroke-linecap="butt">
      <text x="1197.3232" xml:space="preserve" y="902.2139" clip-path="url(#clipPath2)" stroke="none">Use null</text>
    </g>
    <g fill="url(#linearGradient18)" text-rendering="geometricPrecision" shape-rendering="geometricPrecision" transform="matrix(1,0,0,1,-348,35)" stroke="url(#linearGradient18)">
      <path d="M710 615.5 L822 661.5 L710 707.5 L598 661.5 Z" stroke="none" clip-path="url(#clipPath2)"/>
    </g>
    <g text-rendering="geometricPrecision" stroke-miterlimit="1.45" shape-rendering="geometricPrecision" font-family="sans-serif" transform="matrix(1,0,0,1,-348,35)" stroke-linecap="butt">
      <text x="661.3115" xml:space="preserve" y="658.8633" clip-path="url(#clipPath2)" stroke="none">Parameter without</text>
      <text x="634.2881" xml:space="preserve" y="673.5645" clip-path="url(#clipPath2)" stroke="none">type and variadic argument?</text>
    </g>
    <g fill="url(#linearGradient19)" text-rendering="geometricPrecision" shape-rendering="geometricPrecision" transform="matrix(1,0,0,1,-348,35)" stroke="url(#linearGradient19)">
      <rect x="363.5" y="631" clip-path="url(#clipPath2)" width="151" rx="30.5" ry="30.5" height="61" stroke="none"/>
    </g>
    <g stroke-linecap="round" transform="matrix(1,0,0,1,-348,35)" stroke-dashoffset="2" text-rendering="geometricPrecision" shape-rendering="geometricPrecision" stroke-dasharray="0,4" stroke-miterlimit="1.45">
      <rect x="363.5" y="631" clip-path="url(#clipPath2)" fill="none" width="151" rx="30.5" ry="30.5" height="61"/>
    </g>
    <g text-rendering="geometricPrecision" stroke-miterlimit="1.45" shape-rendering="geometricPrecision" font-family="sans-serif" transform="matrix(1,0,0,1,-348,35)" stroke-linecap="butt">
      <text x="393.9736" xml:space="preserve" y="658.8633" clip-path="url(#clipPath2)" stroke="none">Use all unnamed</text>
      <text x="410.6523" xml:space="preserve" y="673.5645" clip-path="url(#clipPath2)" stroke="none">arguments</text>
    </g>
    <g text-rendering="geometricPrecision" stroke-miterlimit="1.45" shape-rendering="geometricPrecision" transform="matrix(1,0,0,1,-348,35)" stroke-linecap="butt">
      <path fill="none" d="M710 40.9823 L710 79.0197" clip-path="url(#clipPath2)"/>
    </g>
    <g text-rendering="geometricPrecision" stroke-miterlimit="1.45" shape-rendering="geometricPrecision" transform="matrix(1,0,0,1,-348,35)" stroke-linecap="butt">
      <path d="M710 87.0197 L715 75.0197 L710 78.0197 L705 75.0197 Z" stroke="none" clip-path="url(#clipPath2)"/>
      <path fill="none" d="M710 165.0163 L710 370.5135" stroke-width="3" clip-path="url(#clipPath2)" stroke="rgb(153,51,0)"/>
      <path fill="rgb(153,51,0)" d="M710 380.5135 L716.25 365.5135 L710 369.2635 L703.75 365.5135 Z" stroke-width="3" clip-path="url(#clipPath2)" stroke="none"/>
      <text x="733.3262" xml:space="preserve" y="277.4639" clip-path="url(#clipPath2)" font-family="sans-serif" stroke="none">no</text>
      <path fill="none" d="M795.007 126 L1117 126 L1117 145.467" stroke-width="3" clip-path="url(#clipPath2)" stroke="green"/>
      <path fill="green" d="M1117 155.467 L1123.25 140.467 L1117 144.217 L1110.75 140.467 Z" stroke-width="3" clip-path="url(#clipPath2)" stroke="none"/>
      <text x="954.8315" xml:space="preserve" y="100.7139" clip-path="url(#clipPath2)" font-family="sans-serif" stroke="none">yes</text>
      <path fill="none" d="M1199.4973 194.5 L1304 194.5 L1304 234.4672" stroke-width="3" clip-path="url(#clipPath2)" stroke="green"/>
      <path fill="green" d="M1304 244.4672 L1310.25 229.4672 L1304 233.2172 L1297.75 229.4672 Z" stroke-width="3" clip-path="url(#clipPath2)" stroke="none"/>
      <text x="1250.5815" xml:space="preserve" y="169.2139" clip-path="url(#clipPath2)" font-family="sans-serif" stroke="none">yes</text>
      <path fill="none" d="M1034.4751 194.5 L939 194.5 L939 234.4672" stroke-width="3" clip-path="url(#clipPath2)" stroke="rgb(153,51,0)"/>
      <path fill="rgb(153,51,0)" d="M939 244.4672 L945.25 229.4672 L939 233.2172 L932.75 229.4672 Z" stroke-width="3" clip-path="url(#clipPath2)" stroke="none"/>
      <text x="973.2393" xml:space="preserve" y="169.2139" clip-path="url(#clipPath2)" font-family="sans-serif" stroke="none">no</text>
      <path fill="none" d="M1069.1124 534.3084 L1126.4813 534.1904" stroke-width="3" clip-path="url(#clipPath2)" stroke="green"/>
      <path fill="green" d="M1136.4813 534.1698 L1121.4685 527.9507 L1125.2313 534.1929 L1121.4943 540.4506 Z" stroke-width="3" clip-path="url(#clipPath2)" stroke="none"/>
      <text x="1093.6631" xml:space="preserve" y="508.9525" clip-path="url(#clipPath2)" font-family="sans-serif" stroke="none">yes</text>
      <path fill="none" d="M803.4832 419.5 L872.7921 419.5" stroke-width="3" clip-path="url(#clipPath2)" stroke="green"/>
      <path fill="green" d="M882.7921 419.5 L867.7921 413.25 L871.5421 419.5 L867.7921 425.75 Z" stroke-width="3" clip-path="url(#clipPath2)" stroke="none"/>
      <text x="833.7881" xml:space="preserve" y="394.2139" clip-path="url(#clipPath2)" font-family="sans-serif" stroke="none">yes</text>
      <path fill="none" d="M976 458.4978 L976 478.5201" stroke-width="3" clip-path="url(#clipPath2)" stroke="rgb(153,51,0)"/>
      <path fill="rgb(153,51,0)" d="M976 488.5201 L982.25 473.5201 L976 477.2701 L969.75 473.5201 Z" stroke-width="3" clip-path="url(#clipPath2)" stroke="none"/>
      <text x="999.3262" xml:space="preserve" y="477.5645" clip-path="url(#clipPath2)" font-family="sans-serif" stroke="none">no</text>
      <path fill="none" d="M1069.2311 419.5 L1126.4735 419.5" stroke-width="3" clip-path="url(#clipPath2)" stroke="green"/>
      <path fill="green" d="M1136.4735 419.5 L1121.4735 413.25 L1125.2235 419.5 L1121.4735 425.75 Z" stroke-width="3" clip-path="url(#clipPath2)" stroke="none"/>
      <text x="1093.5381" xml:space="preserve" y="394.2139" clip-path="url(#clipPath2)" font-family="sans-serif" stroke="none">yes</text>
      <path fill="none" d="M976 580.5272 L976 636.5225" stroke-width="3" clip-path="url(#clipPath2)" stroke="rgb(153,51,0)"/>
      <path fill="rgb(153,51,0)" d="M976 646.5225 L982.25 631.5225 L976 635.2725 L969.75 631.5225 Z" stroke-width="3" clip-path="url(#clipPath2)" stroke="none"/>
      <text x="999.3262" xml:space="preserve" y="618.2139" clip-path="url(#clipPath2)" font-family="sans-serif" stroke="none">no</text>
      <path fill="none" d="M976 707.5074 L976 748.5237" stroke-width="3" clip-path="url(#clipPath2)" stroke="rgb(153,51,0)"/>
      <path fill="rgb(153,51,0)" d="M976 758.5237 L982.25 743.5237 L976 747.2737 L969.75 743.5237 Z" stroke-width="3" clip-path="url(#clipPath2)" stroke="none"/>
      <text x="999.3262" xml:space="preserve" y="737.7139" clip-path="url(#clipPath2)" font-family="sans-serif" stroke="none">no</text>
      <path fill="none" d="M976 836.5137 L976 867.5186" stroke-width="3" clip-path="url(#clipPath2)" stroke="rgb(153,51,0)"/>
      <path fill="rgb(153,51,0)" d="M976 877.5186 L982.25 862.5186 L976 866.2686 L969.75 862.5186 Z" stroke-width="3" clip-path="url(#clipPath2)" stroke="none"/>
      <text x="999.3262" xml:space="preserve" y="861.7139" clip-path="url(#clipPath2)" font-family="sans-serif" stroke="none">no</text>
      <path fill="none" d="M1069.5277 677 L1126.491 677" stroke-width="3" clip-path="url(#clipPath2)" stroke="green"/>
      <path fill="green" d="M1136.491 677 L1121.491 670.75 L1125.241 677 L1121.491 683.25 Z" stroke-width="3" clip-path="url(#clipPath2)" stroke="none"/>
      <text x="1093.6631" xml:space="preserve" y="651.7139" clip-path="url(#clipPath2)" font-family="sans-serif" stroke="none">yes</text>
      <path fill="none" d="M1069.5277 797.5 L1126.491 797.5" stroke-width="3" clip-path="url(#clipPath2)" stroke="green"/>
      <path fill="green" d="M1136.491 797.5 L1121.491 791.25 L1125.241 797.5 L1121.491 803.75 Z" stroke-width="3" clip-path="url(#clipPath2)" stroke="none"/>
      <text x="1093.6631" xml:space="preserve" y="772.2139" clip-path="url(#clipPath2)" font-family="sans-serif" stroke="none">yes</text>
      <path fill="none" d="M976 917.4951 L976 937.5273" stroke-width="3" clip-path="url(#clipPath2)" stroke="rgb(153,51,0)"/>
      <path fill="rgb(153,51,0)" d="M976 947.5273 L982.25 932.5273 L976 936.2773 L969.75 932.5273 Z" stroke-width="3" clip-path="url(#clipPath2)" stroke="none"/>
      <text x="999.3262" xml:space="preserve" y="937.2139" clip-path="url(#clipPath2)" font-family="sans-serif" stroke="none">no</text>
      <path fill="none" d="M1069.5277 897.5 L1126.491 897.5" stroke-width="3" clip-path="url(#clipPath2)" stroke="green"/>
      <path fill="green" d="M1136.491 897.5 L1121.491 891.25 L1125.241 897.5 L1121.491 903.75 Z" stroke-width="3" clip-path="url(#clipPath2)" stroke="none"/>
      <text x="1093.6631" xml:space="preserve" y="872.2139" clip-path="url(#clipPath2)" font-family="sans-serif" stroke="none">yes</text>
      <path fill="none" d="M710 458.5237 L710 605.4636" stroke-width="3" clip-path="url(#clipPath2)" stroke="rgb(153,51,0)"/>
      <path fill="rgb(153,51,0)" d="M710 615.4636 L716.25 600.4636 L710 604.2136 L703.75 600.4636 Z" stroke-width="3" clip-path="url(#clipPath2)" stroke="none"/>
      <text x="733.3262" xml:space="preserve" y="541.7139" clip-path="url(#clipPath2)" font-family="sans-serif" stroke="none">no</text>
      <path fill="none" d="M710 707.4863 L710 797.5 L872.5168 797.5" stroke-width="3" clip-path="url(#clipPath2)" stroke="rgb(153,51,0)"/>
      <path fill="rgb(153,51,0)" d="M882.5168 797.5 L867.5168 791.25 L871.2668 797.5 L867.5168 803.75 Z" stroke-width="3" clip-path="url(#clipPath2)" stroke="none"/>
      <text x="733.3262" xml:space="preserve" y="748.3892" clip-path="url(#clipPath2)" font-family="sans-serif" stroke="none">no</text>
      <path fill="none" d="M598.0206 661.5 L524.5115 661.5" stroke-width="3" clip-path="url(#clipPath2)" stroke="green"/>
      <path fill="green" d="M514.5115 661.5 L529.5115 667.75 L525.7615 661.5 L529.5115 655.25 Z" stroke-width="3" clip-path="url(#clipPath2)" stroke="none"/>
      <text x="546.9131" xml:space="preserve" y="636.2139" clip-path="url(#clipPath2)" font-family="sans-serif" stroke="none">yes</text>
    </g>
  </g>
</svg>
