<?xml version="1.0" encoding="UTF-8"?><svg xmlns="http://www.w3.org/2000/svg" xmlns:xlink="http://www.w3.org/1999/xlink" fill-opacity="1" color-rendering="auto" color-interpolation="auto" text-rendering="auto" stroke="black" stroke-linecap="square" width="1060" stroke-miterlimit="10" shape-rendering="auto" stroke-opacity="1" fill="black" stroke-dasharray="none" font-weight="normal" stroke-width="1" height="1301" font-family="'Dialog'" font-style="normal" stroke-linejoin="miter" font-size="12px" stroke-dashoffset="0" image-rendering="auto">
  <!--Generated by ySVG 2.6-->
  <defs id="genericDefs"/>
  <g>
    <defs id="defs1">
      <linearGradient x1="636.0938" gradientUnits="userSpaceOnUse" x2="823.0938" y1="-20" y2="41" id="linearGradient1" spreadMethod="reflect">
        <stop stop-opacity="1" stop-color="rgb(232,238,247)" offset="0%"/>
        <stop stop-opacity="1" stop-color="rgb(183,201,227)" offset="100%"/>
      </linearGradient>
      <linearGradient x1="616.75" gradientUnits="userSpaceOnUse" x2="842.4375" y1="87" y2="213.75" id="linearGradient2" spreadMethod="reflect">
        <stop stop-opacity="1" stop-color="rgb(255,204,153)" offset="0%"/>
        <stop stop-opacity="1" stop-color="rgb(255,204,153)" offset="100%"/>
      </linearGradient>
      <linearGradient x1="610.4062" gradientUnits="userSpaceOnUse" x2="836.0938" y1="414.1914" y2="540.9414" id="linearGradient3" spreadMethod="reflect">
        <stop stop-opacity="1" stop-color="rgb(255,204,153)" offset="0%"/>
        <stop stop-opacity="1" stop-color="rgb(255,204,153)" offset="100%"/>
      </linearGradient>
      <linearGradient x1="1023.75" gradientUnits="userSpaceOnUse" x2="1249.4375" y1="183.375" y2="310.125" id="linearGradient4" spreadMethod="reflect">
        <stop stop-opacity="1" stop-color="rgb(255,204,153)" offset="0%"/>
        <stop stop-opacity="1" stop-color="rgb(255,204,153)" offset="100%"/>
      </linearGradient>
      <linearGradient x1="1221.5" gradientUnits="userSpaceOnUse" x2="1386.5" y1="324.625" y2="374.125" id="linearGradient5" spreadMethod="reflect">
        <stop stop-opacity="1" stop-color="rgb(204,255,204)" offset="0%"/>
        <stop stop-opacity="1" stop-color="rgb(204,255,204)" offset="100%"/>
      </linearGradient>
      <linearGradient x1="882.75" gradientUnits="userSpaceOnUse" x2="1047.75" y1="324.625" y2="374.125" id="linearGradient6" spreadMethod="reflect">
        <stop stop-opacity="1" stop-color="rgb(204,255,204)" offset="0%"/>
        <stop stop-opacity="1" stop-color="rgb(204,255,204)" offset="100%"/>
      </linearGradient>
      <linearGradient x1="876.4062" gradientUnits="userSpaceOnUse" x2="1102.0938" y1="570.9414" y2="697.6914" id="linearGradient7" spreadMethod="reflect">
        <stop stop-opacity="1" stop-color="rgb(255,204,153)" offset="0%"/>
        <stop stop-opacity="1" stop-color="rgb(255,204,153)" offset="100%"/>
      </linearGradient>
      <linearGradient x1="1215.1562" gradientUnits="userSpaceOnUse" x2="1380.1562" y1="584.3164" y2="683.3164" id="linearGradient8" spreadMethod="reflect">
        <stop stop-opacity="1" stop-color="rgb(204,255,204)" offset="0%"/>
        <stop stop-opacity="1" stop-color="rgb(204,255,204)" offset="100%"/>
      </linearGradient>
      <linearGradient x1="876.4062" gradientUnits="userSpaceOnUse" x2="1102.0938" y1="414.1914" y2="540.9414" id="linearGradient9" spreadMethod="reflect">
        <stop stop-opacity="1" stop-color="rgb(255,204,153)" offset="0%"/>
        <stop stop-opacity="1" stop-color="rgb(255,204,153)" offset="100%"/>
      </linearGradient>
      <linearGradient x1="1215.1562" gradientUnits="userSpaceOnUse" x2="1380.1562" y1="442.5664" y2="512.5664" id="linearGradient10" spreadMethod="reflect">
        <stop stop-opacity="1" stop-color="rgb(204,255,204)" offset="0%"/>
        <stop stop-opacity="1" stop-color="rgb(204,255,204)" offset="100%"/>
      </linearGradient>
      <linearGradient x1="876.4062" gradientUnits="userSpaceOnUse" x2="1102.0938" y1="727.6914" y2="854.4414" id="linearGradient11" spreadMethod="reflect">
        <stop stop-opacity="1" stop-color="rgb(255,204,153)" offset="0%"/>
        <stop stop-opacity="1" stop-color="rgb(255,204,153)" offset="100%"/>
      </linearGradient>
      <linearGradient x1="876.4062" gradientUnits="userSpaceOnUse" x2="1102.0938" y1="884.4414" y2="1011.1914" id="linearGradient12" spreadMethod="reflect">
        <stop stop-opacity="1" stop-color="rgb(255,204,153)" offset="0%"/>
        <stop stop-opacity="1" stop-color="rgb(255,204,153)" offset="100%"/>
      </linearGradient>
      <linearGradient x1="876.4062" gradientUnits="userSpaceOnUse" x2="1102.0938" y1="1041.1914" y2="1167.9414" id="linearGradient13" spreadMethod="reflect">
        <stop stop-opacity="1" stop-color="rgb(255,204,153)" offset="0%"/>
        <stop stop-opacity="1" stop-color="rgb(255,204,153)" offset="100%"/>
      </linearGradient>
      <linearGradient x1="1215.1562" gradientUnits="userSpaceOnUse" x2="1380.1562" y1="771.0664" y2="811.0664" id="linearGradient14" spreadMethod="reflect">
        <stop stop-opacity="1" stop-color="rgb(204,255,204)" offset="0%"/>
        <stop stop-opacity="1" stop-color="rgb(204,255,204)" offset="100%"/>
      </linearGradient>
      <linearGradient x1="1215.1562" gradientUnits="userSpaceOnUse" x2="1380.1562" y1="920.8164" y2="960.8164" id="linearGradient15" spreadMethod="reflect">
        <stop stop-opacity="1" stop-color="rgb(204,255,204)" offset="0%"/>
        <stop stop-opacity="1" stop-color="rgb(204,255,204)" offset="100%"/>
      </linearGradient>
      <linearGradient x1="930.75" gradientUnits="userSpaceOnUse" x2="1047.75" y1="1210.608" y2="1250.608" id="linearGradient16" spreadMethod="reflect">
        <stop stop-opacity="1" stop-color="maroon" offset="0%"/>
        <stop stop-opacity="1" stop-color="rgb(153,51,0)" offset="100%"/>
      </linearGradient>
      <linearGradient x1="1215.1562" gradientUnits="userSpaceOnUse" x2="1380.1562" y1="1084.5664" y2="1124.5664" id="linearGradient17" spreadMethod="reflect">
        <stop stop-opacity="1" stop-color="rgb(204,255,204)" offset="0%"/>
        <stop stop-opacity="1" stop-color="rgb(204,255,204)" offset="100%"/>
      </linearGradient>
      <linearGradient x1="610.4062" gradientUnits="userSpaceOnUse" x2="836.0938" y1="727.6914" y2="854.4414" id="linearGradient18" spreadMethod="reflect">
        <stop stop-opacity="1" stop-color="rgb(255,204,153)" offset="0%"/>
        <stop stop-opacity="1" stop-color="rgb(255,204,153)" offset="100%"/>
      </linearGradient>
      <linearGradient x1="357.1562" gradientUnits="userSpaceOnUse" x2="508.1562" y1="760.5664" y2="821.5664" id="linearGradient19" spreadMethod="reflect">
        <stop stop-opacity="1" stop-color="rgb(204,255,204)" offset="0%"/>
        <stop stop-opacity="1" stop-color="rgb(204,255,204)" offset="100%"/>
      </linearGradient>
      <clipPath clipPathUnits="userSpaceOnUse" id="clipPath1">
        <path d="M0 0 L1060 0 L1060 1301 L0 1301 L0 0 Z"/>
      </clipPath>
      <clipPath clipPathUnits="userSpaceOnUse" id="clipPath2">
        <path d="M342 -35 L1402 -35 L1402 1266 L342 1266 L342 -35 Z"/>
      </clipPath>
    </defs>
    <g fill="white" text-rendering="geometricPrecision" shape-rendering="geometricPrecision" transform="translate(-342,35)" stroke="white">
      <rect x="342" width="1060" height="1301" y="-35" clip-path="url(#clipPath2)" stroke="none"/>
    </g>
    <g fill="url(#linearGradient1)" text-rendering="geometricPrecision" shape-rendering="geometricPrecision" transform="matrix(1,0,0,1,-342,35)" stroke="url(#linearGradient1)">
      <ellipse rx="93.5" ry="30.5" clip-path="url(#clipPath2)" cx="729.5938" cy="10.5" stroke="none"/>
    </g>
    <g text-rendering="geometricPrecision" stroke-miterlimit="1.45" shape-rendering="geometricPrecision" font-family="sans-serif" transform="matrix(1,0,0,1,-342,35)" stroke-linecap="butt">
      <text x="673.2295" xml:space="preserve" y="15.2139" clip-path="url(#clipPath2)" stroke="none">Para cada parâmetro</text>
    </g>
    <g fill="url(#linearGradient2)" text-rendering="geometricPrecision" shape-rendering="geometricPrecision" transform="matrix(1,0,0,1,-342,35)" stroke="url(#linearGradient2)">
      <path d="M729.5938 87 L842.4375 150.375 L729.5938 213.75 L616.75 150.375 Z" stroke="none" clip-path="url(#clipPath2)"/>
    </g>
    <g text-rendering="geometricPrecision" stroke-miterlimit="1.45" shape-rendering="geometricPrecision" font-family="sans-serif" transform="matrix(1,0,0,1,-342,35)" stroke-linecap="butt">
      <text x="665.2256" xml:space="preserve" y="147.7383" clip-path="url(#clipPath2)" stroke="none">$argumentos tem chave</text>
      <text x="660.8926" xml:space="preserve" y="162.4395" clip-path="url(#clipPath2)" stroke="none">com nome do parâmetro?</text>
    </g>
    <g fill="url(#linearGradient3)" text-rendering="geometricPrecision" shape-rendering="geometricPrecision" transform="matrix(1,0,0,1,-342,35)" stroke="url(#linearGradient3)">
      <path d="M723.25 414.1914 L836.0938 477.5664 L723.25 540.9414 L610.4062 477.5664 Z" stroke="none" clip-path="url(#clipPath2)"/>
    </g>
    <g text-rendering="geometricPrecision" stroke-miterlimit="1.45" shape-rendering="geometricPrecision" font-family="sans-serif" transform="matrix(1,0,0,1,-342,35)" stroke-linecap="butt">
      <text x="650.8809" xml:space="preserve" y="474.9297" clip-path="url(#clipPath2)" stroke="none">Parâmetro declarado como</text>
      <text x="660.2119" xml:space="preserve" y="489.6309" clip-path="url(#clipPath2)" stroke="none">objeto/classe/interface?</text>
    </g>
    <g fill="url(#linearGradient4)" text-rendering="geometricPrecision" shape-rendering="geometricPrecision" transform="matrix(1,0,0,1,-342,35)" stroke="url(#linearGradient4)">
      <path d="M1136.5938 183.375 L1249.4375 246.75 L1136.5938 310.125 L1023.75 246.75 Z" stroke="none" clip-path="url(#clipPath2)"/>
    </g>
    <g text-rendering="geometricPrecision" stroke-miterlimit="1.45" shape-rendering="geometricPrecision" font-family="sans-serif" transform="matrix(1,0,0,1,-342,35)" stroke-linecap="butt">
      <text x="1103.5791" xml:space="preserve" y="236.7627" clip-path="url(#clipPath2)" stroke="none">Parâmetro é</text>
      <text x="1084.9023" xml:space="preserve" y="251.4639" clip-path="url(#clipPath2)" stroke="none">variável e valor dos</text>
      <text x="1077.8945" xml:space="preserve" y="266.165" clip-path="url(#clipPath2)" stroke="none">$argumentos é array?</text>
    </g>
    <g fill="url(#linearGradient5)" text-rendering="geometricPrecision" shape-rendering="geometricPrecision" transform="matrix(1,0,0,1,-342,35)" stroke="url(#linearGradient5)">
      <rect x="1221.5" y="324.625" clip-path="url(#clipPath2)" width="165" rx="24.75" ry="24.75" height="49.5" stroke="none"/>
    </g>
    <g stroke-linecap="round" transform="matrix(1,0,0,1,-342,35)" stroke-dashoffset="2" text-rendering="geometricPrecision" shape-rendering="geometricPrecision" stroke-dasharray="0,4" stroke-miterlimit="1.45">
      <rect x="1221.5" y="324.625" clip-path="url(#clipPath2)" fill="none" width="165" rx="24.75" ry="24.75" height="49.5"/>
    </g>
    <g text-rendering="geometricPrecision" stroke-miterlimit="1.45" shape-rendering="geometricPrecision" font-family="sans-serif" transform="matrix(1,0,0,1,-342,35)" stroke-linecap="butt">
      <text x="1249.2998" xml:space="preserve" y="346.7383" clip-path="url(#clipPath2)" stroke="none">Use valor expandido</text>
      <text x="1260.6377" xml:space="preserve" y="361.4395" clip-path="url(#clipPath2)" stroke="none">de $argumentos</text>
    </g>
    <g fill="url(#linearGradient6)" text-rendering="geometricPrecision" shape-rendering="geometricPrecision" transform="matrix(1,0,0,1,-342,35)" stroke="url(#linearGradient6)">
      <rect x="882.75" y="324.625" clip-path="url(#clipPath2)" width="165" rx="24.75" ry="24.75" height="49.5" stroke="none"/>
    </g>
    <g stroke-linecap="round" transform="matrix(1,0,0,1,-342,35)" stroke-dashoffset="2" text-rendering="geometricPrecision" shape-rendering="geometricPrecision" stroke-dasharray="0,4" stroke-miterlimit="1.45">
      <rect x="882.75" y="324.625" clip-path="url(#clipPath2)" fill="none" width="165" rx="24.75" ry="24.75" height="49.5"/>
    </g>
    <g text-rendering="geometricPrecision" stroke-miterlimit="1.45" shape-rendering="geometricPrecision" font-family="sans-serif" transform="matrix(1,0,0,1,-342,35)" stroke-linecap="butt">
      <text x="917.8916" xml:space="preserve" y="346.7383" clip-path="url(#clipPath2)" stroke="none">Use $argumentos</text>
      <text x="935.9062" xml:space="preserve" y="361.4395" clip-path="url(#clipPath2)" stroke="none">como valor</text>
    </g>
    <g fill="url(#linearGradient7)" text-rendering="geometricPrecision" shape-rendering="geometricPrecision" transform="matrix(1,0,0,1,-342,35)" stroke="url(#linearGradient7)">
      <path d="M989.25 570.9414 L1102.0938 634.3164 L989.25 697.6914 L876.4062 634.3164 Z" stroke="none" clip-path="url(#clipPath2)"/>
    </g>
    <g text-rendering="geometricPrecision" stroke-miterlimit="1.45" shape-rendering="geometricPrecision" font-family="sans-serif" transform="matrix(1,0,0,1,-342,35)" stroke-linecap="butt">
      <text x="932.8857" xml:space="preserve" y="624.3291" clip-path="url(#clipPath2)" stroke="none">$argumentos contém</text>
      <text x="930.8818" xml:space="preserve" y="639.0303" clip-path="url(#clipPath2)" stroke="none">objeto desse tipo sem</text>
      <text x="944.8857" xml:space="preserve" y="653.7314" clip-path="url(#clipPath2)" stroke="none">chave de nome?</text>
    </g>
    <g fill="url(#linearGradient8)" text-rendering="geometricPrecision" shape-rendering="geometricPrecision" transform="matrix(1,0,0,1,-342,35)" stroke="url(#linearGradient8)">
      <rect x="1215.1562" y="584.3164" clip-path="url(#clipPath2)" width="165" rx="49.5" ry="49.5" height="99" stroke="none"/>
    </g>
    <g stroke-linecap="round" transform="matrix(1,0,0,1,-342,35)" stroke-dashoffset="2" text-rendering="geometricPrecision" shape-rendering="geometricPrecision" stroke-dasharray="0,4" stroke-miterlimit="1.45">
      <rect x="1215.1562" y="584.3164" clip-path="url(#clipPath2)" fill="none" width="165" rx="49.5" ry="49.5" height="99"/>
    </g>
    <g text-rendering="geometricPrecision" stroke-miterlimit="1.45" shape-rendering="geometricPrecision" font-family="sans-serif" transform="matrix(1,0,0,1,-342,35)" stroke-linecap="butt">
      <text x="1268.9717" xml:space="preserve" y="609.1279" clip-path="url(#clipPath2)" stroke="none">Use objeto</text>
      <text x="1251.2939" xml:space="preserve" y="623.8291" clip-path="url(#clipPath2)" stroke="none">dos $argumentos</text>
      <text x="1232.9629" xml:space="preserve" y="638.5303" clip-path="url(#clipPath2)" stroke="none">(Na ordem informada se</text>
      <text x="1232.9658" xml:space="preserve" y="653.2314" clip-path="url(#clipPath2)" stroke="none">vários parâmetros têm o</text>
      <text x="1264.6475" xml:space="preserve" y="667.9326" clip-path="url(#clipPath2)" stroke="none">mesmo tipo)</text>
    </g>
    <g fill="url(#linearGradient9)" text-rendering="geometricPrecision" shape-rendering="geometricPrecision" transform="matrix(1,0,0,1,-342,35)" stroke="url(#linearGradient9)">
      <path d="M989.25 414.1914 L1102.0938 477.5664 L989.25 540.9414 L876.4062 477.5664 Z" stroke="none" clip-path="url(#clipPath2)"/>
    </g>
    <g text-rendering="geometricPrecision" stroke-miterlimit="1.45" shape-rendering="geometricPrecision" font-family="sans-serif" transform="matrix(1,0,0,1,-342,35)" stroke-linecap="butt">
      <text x="930.5566" xml:space="preserve" y="482.2803" clip-path="url(#clipPath2)" stroke="none">Parâmetro é variável?</text>
    </g>
    <g fill="url(#linearGradient10)" text-rendering="geometricPrecision" shape-rendering="geometricPrecision" transform="matrix(1,0,0,1,-342,35)" stroke="url(#linearGradient10)">
      <rect x="1215.1562" y="442.5664" clip-path="url(#clipPath2)" width="165" rx="35" ry="35" height="70" stroke="none"/>
    </g>
    <g stroke-linecap="round" transform="matrix(1,0,0,1,-342,35)" stroke-dashoffset="2" text-rendering="geometricPrecision" shape-rendering="geometricPrecision" stroke-dasharray="0,4" stroke-miterlimit="1.45">
      <rect x="1215.1562" y="442.5664" clip-path="url(#clipPath2)" fill="none" width="165" rx="35" ry="35" height="70"/>
    </g>
    <g text-rendering="geometricPrecision" stroke-miterlimit="1.45" shape-rendering="geometricPrecision" font-family="sans-serif" transform="matrix(1,0,0,1,-342,35)" stroke-linecap="butt">
      <text x="1233.2822" xml:space="preserve" y="467.5791" clip-path="url(#clipPath2)" stroke="none">Use todos os objetos de</text>
      <text x="1223.9512" xml:space="preserve" y="482.2803" clip-path="url(#clipPath2)" stroke="none">$argumentos com esse tipo</text>
      <text x="1246.9609" xml:space="preserve" y="496.9814" clip-path="url(#clipPath2)" stroke="none">(pode ser nenhum)</text>
    </g>
    <g fill="url(#linearGradient11)" text-rendering="geometricPrecision" shape-rendering="geometricPrecision" transform="matrix(1,0,0,1,-342,35)" stroke="url(#linearGradient11)">
      <path d="M989.25 727.6914 L1102.0938 791.0664 L989.25 854.4414 L876.4062 791.0664 Z" stroke="none" clip-path="url(#clipPath2)"/>
    </g>
    <g text-rendering="geometricPrecision" stroke-miterlimit="1.45" shape-rendering="geometricPrecision" font-family="sans-serif" transform="matrix(1,0,0,1,-342,35)" stroke-linecap="butt">
      <text x="946.5645" xml:space="preserve" y="788.4297" clip-path="url(#clipPath2)" stroke="none">O contêiner tem</text>
      <text x="940.5469" xml:space="preserve" y="803.1309" clip-path="url(#clipPath2)" stroke="none">objeto desse tipo?</text>
    </g>
    <g fill="url(#linearGradient12)" text-rendering="geometricPrecision" shape-rendering="geometricPrecision" transform="matrix(1,0,0,1,-342,35)" stroke="url(#linearGradient12)">
      <path d="M989.25 884.4414 L1102.0938 947.8164 L989.25 1011.1914 L876.4062 947.8164 Z" stroke="none" clip-path="url(#clipPath2)"/>
    </g>
    <g text-rendering="geometricPrecision" stroke-miterlimit="1.45" shape-rendering="geometricPrecision" font-family="sans-serif" transform="matrix(1,0,0,1,-342,35)" stroke-linecap="butt">
      <text x="949.5703" xml:space="preserve" y="945.1797" clip-path="url(#clipPath2)" stroke="none">Parâmetro tem</text>
      <text x="943.2246" xml:space="preserve" y="959.8809" clip-path="url(#clipPath2)" stroke="none">um valor default?</text>
    </g>
    <g fill="url(#linearGradient13)" text-rendering="geometricPrecision" shape-rendering="geometricPrecision" transform="matrix(1,0,0,1,-342,35)" stroke="url(#linearGradient13)">
      <path d="M989.25 1041.1914 L1102.0938 1104.5664 L989.25 1167.9414 L876.4062 1104.5664 Z" stroke="none" clip-path="url(#clipPath2)"/>
    </g>
    <g text-rendering="geometricPrecision" stroke-miterlimit="1.45" shape-rendering="geometricPrecision" font-family="sans-serif" transform="matrix(1,0,0,1,-342,35)" stroke-linecap="butt">
      <text x="961.2393" xml:space="preserve" y="1101.9297" clip-path="url(#clipPath2)" stroke="none">Parâmetro</text>
      <text x="958.5586" xml:space="preserve" y="1116.6309" clip-path="url(#clipPath2)" stroke="none">é anulável?</text>
    </g>
    <g fill="url(#linearGradient14)" text-rendering="geometricPrecision" shape-rendering="geometricPrecision" transform="matrix(1,0,0,1,-342,35)" stroke="url(#linearGradient14)">
      <rect x="1215.1562" y="771.0664" clip-path="url(#clipPath2)" width="165" rx="20" ry="20" height="40" stroke="none"/>
    </g>
    <g stroke-linecap="round" transform="matrix(1,0,0,1,-342,35)" stroke-dashoffset="2" text-rendering="geometricPrecision" shape-rendering="geometricPrecision" stroke-dasharray="0,4" stroke-miterlimit="1.45">
      <rect x="1215.1562" y="771.0664" clip-path="url(#clipPath2)" fill="none" width="165" rx="20" ry="20" height="40"/>
    </g>
    <g text-rendering="geometricPrecision" stroke-miterlimit="1.45" shape-rendering="geometricPrecision" font-family="sans-serif" transform="matrix(1,0,0,1,-342,35)" stroke-linecap="butt">
      <text x="1268.9717" xml:space="preserve" y="788.4297" clip-path="url(#clipPath2)" stroke="none">Use objeto</text>
      <text x="1264.6328" xml:space="preserve" y="803.1309" clip-path="url(#clipPath2)" stroke="none">do contêiner</text>
    </g>
    <g fill="url(#linearGradient15)" text-rendering="geometricPrecision" shape-rendering="geometricPrecision" transform="matrix(1,0,0,1,-342,35)" stroke="url(#linearGradient15)">
      <rect x="1215.1562" y="920.8164" clip-path="url(#clipPath2)" width="165" rx="20" ry="20" height="40" stroke="none"/>
    </g>
    <g stroke-linecap="round" transform="matrix(1,0,0,1,-342,35)" stroke-dashoffset="2" text-rendering="geometricPrecision" shape-rendering="geometricPrecision" stroke-dasharray="0,4" stroke-miterlimit="1.45">
      <rect x="1215.1562" y="920.8164" clip-path="url(#clipPath2)" fill="none" width="165" rx="20" ry="20" height="40"/>
    </g>
    <g text-rendering="geometricPrecision" stroke-miterlimit="1.45" shape-rendering="geometricPrecision" font-family="sans-serif" transform="matrix(1,0,0,1,-342,35)" stroke-linecap="butt">
      <text x="1247.6289" xml:space="preserve" y="945.5303" clip-path="url(#clipPath2)" stroke="none">Use o valor default</text>
    </g>
    <g fill="url(#linearGradient16)" text-rendering="geometricPrecision" shape-rendering="geometricPrecision" transform="matrix(1,0,0,1,-342,35)" stroke="url(#linearGradient16)">
      <rect x="930.75" y="1210.6081" clip-path="url(#clipPath2)" width="117" rx="20" ry="20" height="40" stroke="none"/>
    </g>
    <g stroke-linecap="round" transform="matrix(1,0,0,1,-342,35)" stroke-dashoffset="2" text-rendering="geometricPrecision" shape-rendering="geometricPrecision" stroke-dasharray="0,12" stroke-width="3" stroke-miterlimit="1.45">
      <rect x="930.75" y="1210.6081" clip-path="url(#clipPath2)" fill="none" width="117" rx="20" ry="20" height="40"/>
    </g>
    <g stroke-linecap="butt" transform="matrix(1,0,0,1,-342,35)" fill="white" text-rendering="geometricPrecision" font-family="sans-serif" shape-rendering="geometricPrecision" stroke="white" stroke-miterlimit="1.45">
      <text x="948.8877" xml:space="preserve" y="1235.3219" clip-path="url(#clipPath2)" stroke="none">Lança exceção</text>
    </g>
    <g fill="url(#linearGradient17)" text-rendering="geometricPrecision" shape-rendering="geometricPrecision" transform="matrix(1,0,0,1,-342,35)" stroke="url(#linearGradient17)">
      <rect x="1215.1562" y="1084.5664" clip-path="url(#clipPath2)" width="165" rx="20" ry="20" height="40" stroke="none"/>
    </g>
    <g stroke-linecap="round" transform="matrix(1,0,0,1,-342,35)" stroke-dashoffset="2" text-rendering="geometricPrecision" shape-rendering="geometricPrecision" stroke-dasharray="0,4" stroke-miterlimit="1.45">
      <rect x="1215.1562" y="1084.5664" clip-path="url(#clipPath2)" fill="none" width="165" rx="20" ry="20" height="40"/>
    </g>
    <g text-rendering="geometricPrecision" stroke-miterlimit="1.45" shape-rendering="geometricPrecision" font-family="sans-serif" transform="matrix(1,0,0,1,-342,35)" stroke-linecap="butt">
      <text x="1275.9795" xml:space="preserve" y="1109.2803" clip-path="url(#clipPath2)" stroke="none">Use null</text>
    </g>
    <g fill="url(#linearGradient18)" text-rendering="geometricPrecision" shape-rendering="geometricPrecision" transform="matrix(1,0,0,1,-342,35)" stroke="url(#linearGradient18)">
      <path d="M723.25 727.6914 L836.0938 791.0664 L723.25 854.4414 L610.4062 791.0664 Z" stroke="none" clip-path="url(#clipPath2)"/>
    </g>
    <g text-rendering="geometricPrecision" stroke-miterlimit="1.45" shape-rendering="geometricPrecision" font-family="sans-serif" transform="matrix(1,0,0,1,-342,35)" stroke-linecap="butt">
      <text x="665.8926" xml:space="preserve" y="788.4297" clip-path="url(#clipPath2)" stroke="none">Parâmetro sem tipo e</text>
      <text x="668.8867" xml:space="preserve" y="803.1309" clip-path="url(#clipPath2)" stroke="none">argumento variável?</text>
    </g>
    <g fill="url(#linearGradient19)" text-rendering="geometricPrecision" shape-rendering="geometricPrecision" transform="matrix(1,0,0,1,-342,35)" stroke="url(#linearGradient19)">
      <rect x="357.1562" y="760.5664" clip-path="url(#clipPath2)" width="151" rx="30.5" ry="30.5" height="61" stroke="none"/>
    </g>
    <g stroke-linecap="round" transform="matrix(1,0,0,1,-342,35)" stroke-dashoffset="2" text-rendering="geometricPrecision" shape-rendering="geometricPrecision" stroke-dasharray="0,4" stroke-miterlimit="1.45">
      <rect x="357.1562" y="760.5664" clip-path="url(#clipPath2)" fill="none" width="151" rx="30.5" ry="30.5" height="61"/>
    </g>
    <g text-rendering="geometricPrecision" stroke-miterlimit="1.45" shape-rendering="geometricPrecision" font-family="sans-serif" transform="matrix(1,0,0,1,-342,35)" stroke-linecap="butt">
      <text x="372.29" xml:space="preserve" y="788.4297" clip-path="url(#clipPath2)" stroke="none">Use todos argumentos</text>
      <text x="392.959" xml:space="preserve" y="803.1309" clip-path="url(#clipPath2)" stroke="none">não nomeados</text>
    </g>
    <g text-rendering="geometricPrecision" stroke-miterlimit="1.45" stroke-width="2" shape-rendering="geometricPrecision" transform="matrix(1,0,0,1,-342,35)" stroke-linecap="butt">
      <path fill="none" d="M729.5938 40.9952 L729.5938 78.0063" clip-path="url(#clipPath2)"/>
    </g>
    <g text-rendering="geometricPrecision" stroke-miterlimit="1.45" stroke-width="2" shape-rendering="geometricPrecision" transform="matrix(1,0,0,1,-342,35)" stroke-linecap="butt">
      <path d="M729.5938 87.0063 L735.2188 73.5063 L729.5938 76.8813 L723.9688 73.5063 Z" stroke="none" clip-path="url(#clipPath2)"/>
      <path fill="none" d="M728.3787 213.0414 L724.6591 404.8922" stroke-width="3" clip-path="url(#clipPath2)" stroke="rgb(153,51,0)"/>
      <path fill="rgb(153,51,0)" d="M724.4652 414.8903 L731.0048 400.0142 L724.6833 403.6424 L718.5071 399.7719 Z" stroke-width="3" clip-path="url(#clipPath2)" stroke="none"/>
      <text x="746.4167" y="318.6846" clip-path="url(#clipPath2)" font-family="sans-serif" stroke="none" stroke-width="1" xml:space="preserve">não</text>
      <path fill="none" d="M842.462 150.375 L1044.625 150.375 L1136.5938 150.375 L1136.5938 173.3627" stroke-width="3" clip-path="url(#clipPath2)" stroke="green"/>
      <path fill="green" d="M1136.5938 183.3627 L1142.8438 168.3627 L1136.5938 172.1127 L1130.3438 168.3627 Z" stroke-width="3" clip-path="url(#clipPath2)" stroke="none"/>
      <text x="978.7934" y="122.754" clip-path="url(#clipPath2)" font-family="sans-serif" stroke="none" stroke-width="1" xml:space="preserve">sim</text>
      <path fill="none" d="M1249.4376 246.75 L1304 246.75 L1304 314.6458" stroke-width="3" clip-path="url(#clipPath2)" stroke="green"/>
      <path fill="green" d="M1304 324.6458 L1310.25 309.6458 L1304 313.3958 L1297.75 309.6458 Z" stroke-width="3" clip-path="url(#clipPath2)" stroke="none"/>
      <text x="1275.5532" y="221.4639" clip-path="url(#clipPath2)" font-family="sans-serif" stroke="none" stroke-width="1" xml:space="preserve">sim</text>
      <path fill="none" d="M1023.7729 246.75 L965.25 246.75 L965.25 314.6458" stroke-width="3" clip-path="url(#clipPath2)" stroke="rgb(153,51,0)"/>
      <path fill="rgb(153,51,0)" d="M965.25 324.6458 L971.5 309.6458 L965.25 313.3958 L959 309.6458 Z" stroke-width="3" clip-path="url(#clipPath2)" stroke="none"/>
      <text x="975.9839" y="221.4639" clip-path="url(#clipPath2)" font-family="sans-serif" stroke="none" stroke-width="1" xml:space="preserve">não</text>
      <path fill="none" d="M1101.7776 634.134 L1205.1635 633.9664" stroke-width="3" clip-path="url(#clipPath2)" stroke="green"/>
      <path fill="green" d="M1215.1635 633.9501 L1200.1533 627.7245 L1203.9135 633.9684 L1200.1736 640.2245 Z" stroke-width="3" clip-path="url(#clipPath2)" stroke="none"/>
      <text x="1149.2939" y="608.7556" clip-path="url(#clipPath2)" font-family="sans-serif" stroke="none" stroke-width="1" xml:space="preserve">sim</text>
      <path fill="none" d="M836.0857 477.5664 L866.4334 477.5664" stroke-width="3" clip-path="url(#clipPath2)" stroke="green"/>
      <path fill="green" d="M876.4334 477.5664 L861.4334 471.3164 L865.1834 477.5664 L861.4334 483.8164 Z" stroke-width="3" clip-path="url(#clipPath2)" stroke="none"/>
      <text x="846.9189" y="452.2803" clip-path="url(#clipPath2)" font-family="sans-serif" stroke="none" stroke-width="1" xml:space="preserve">sim</text>
      <path fill="none" d="M989.25 540.9782 L989.25 560.9212" stroke-width="3" clip-path="url(#clipPath2)" stroke="rgb(153,51,0)"/>
      <path fill="rgb(153,51,0)" d="M989.25 570.9212 L995.5 555.9212 L989.25 559.6712 L983 555.9212 Z" stroke-width="3" clip-path="url(#clipPath2)" stroke="none"/>
      <text x="1009.2393" y="560.0059" clip-path="url(#clipPath2)" font-family="sans-serif" stroke="none" stroke-width="1" xml:space="preserve">não</text>
      <path fill="none" d="M1102.0789 477.5664 L1205.1947 477.5664" stroke-width="3" clip-path="url(#clipPath2)" stroke="green"/>
      <path fill="green" d="M1215.1947 477.5664 L1200.1947 471.3164 L1203.9447 477.5664 L1200.1947 483.8164 Z" stroke-width="3" clip-path="url(#clipPath2)" stroke="none"/>
      <text x="1149.2939" y="452.2803" clip-path="url(#clipPath2)" font-family="sans-serif" stroke="none" stroke-width="1" xml:space="preserve">sim</text>
      <path fill="none" d="M989.25 697.7282 L989.25 717.6712" stroke-width="3" clip-path="url(#clipPath2)" stroke="rgb(153,51,0)"/>
      <path fill="rgb(153,51,0)" d="M989.25 727.6712 L995.5 712.6712 L989.25 716.4212 L983 712.6712 Z" stroke-width="3" clip-path="url(#clipPath2)" stroke="none"/>
      <text x="1009.2393" y="717.4053" clip-path="url(#clipPath2)" font-family="sans-serif" stroke="none" stroke-width="1" xml:space="preserve">não</text>
      <path fill="none" d="M989.25 854.4782 L989.25 874.4212" stroke-width="3" clip-path="url(#clipPath2)" stroke="rgb(153,51,0)"/>
      <path fill="rgb(153,51,0)" d="M989.25 884.4212 L995.5 869.4212 L989.25 873.1712 L983 869.4212 Z" stroke-width="3" clip-path="url(#clipPath2)" stroke="none"/>
      <text x="1009.2393" y="874.1553" clip-path="url(#clipPath2)" font-family="sans-serif" stroke="none" stroke-width="1" xml:space="preserve">não</text>
      <path fill="none" d="M989.25 1011.2282 L989.25 1031.1711" stroke-width="3" clip-path="url(#clipPath2)" stroke="rgb(153,51,0)"/>
      <path fill="rgb(153,51,0)" d="M989.25 1041.1711 L995.5 1026.1711 L989.25 1029.9211 L983 1026.1711 Z" stroke-width="3" clip-path="url(#clipPath2)" stroke="none"/>
      <text x="1009.2393" y="1030.9053" clip-path="url(#clipPath2)" font-family="sans-serif" stroke="none" stroke-width="1" xml:space="preserve">não</text>
      <path fill="none" d="M1102.0789 791.0664 L1205.1947 791.0664" stroke-width="3" clip-path="url(#clipPath2)" stroke="green"/>
      <path fill="green" d="M1215.1947 791.0664 L1200.1947 784.8164 L1203.9447 791.0664 L1200.1947 797.3164 Z" stroke-width="3" clip-path="url(#clipPath2)" stroke="none"/>
      <text x="1149.2939" y="765.7803" clip-path="url(#clipPath2)" font-family="sans-serif" stroke="none" stroke-width="1" xml:space="preserve">sim</text>
      <path fill="none" d="M1097.7117 945.3546 L1205.2109 942.9147" stroke-width="3" clip-path="url(#clipPath2)" stroke="green"/>
      <path fill="green" d="M1215.2084 942.6877 L1200.0704 936.7797 L1203.9613 942.9431 L1200.3541 949.2766 Z" stroke-width="3" clip-path="url(#clipPath2)" stroke="none"/>
      <text x="1149.2939" y="918.6782" clip-path="url(#clipPath2)" font-family="sans-serif" stroke="none" stroke-width="1" xml:space="preserve">sim</text>
      <path fill="none" d="M989.25 1167.9258 L989.25 1200.6219" stroke-width="3" clip-path="url(#clipPath2)" stroke="rgb(153,51,0)"/>
      <path fill="rgb(153,51,0)" d="M989.25 1210.6219 L995.5 1195.6219 L989.25 1199.3719 L983 1195.6219 Z" stroke-width="3" clip-path="url(#clipPath2)" stroke="none"/>
      <text x="1009.2393" y="1193.9886" clip-path="url(#clipPath2)" font-family="sans-serif" stroke="none" stroke-width="1" xml:space="preserve">não</text>
      <path fill="none" d="M1102.0789 1104.5664 L1205.1947 1104.5664" stroke-width="3" clip-path="url(#clipPath2)" stroke="green"/>
      <path fill="green" d="M1215.1947 1104.5664 L1200.1947 1098.3164 L1203.9447 1104.5664 L1200.1947 1110.8164 Z" stroke-width="3" clip-path="url(#clipPath2)" stroke="none"/>
      <text x="1149.2939" y="1079.2803" clip-path="url(#clipPath2)" font-family="sans-serif" stroke="none" stroke-width="1" xml:space="preserve">sim</text>
      <path fill="none" d="M723.25 540.9782 L723.25 717.7201" stroke-width="3" clip-path="url(#clipPath2)" stroke="rgb(153,51,0)"/>
      <path fill="rgb(153,51,0)" d="M723.25 727.7201 L729.5 712.7201 L723.25 716.4701 L717 712.7201 Z" stroke-width="3" clip-path="url(#clipPath2)" stroke="none"/>
      <text x="743.2393" y="639.0303" clip-path="url(#clipPath2)" font-family="sans-serif" stroke="none" stroke-width="1" xml:space="preserve">não</text>
      <path fill="none" d="M723.25 854.4782 L723.25 947.8164 L730.875 947.8164 L866.4317 947.8164" stroke-width="3" clip-path="url(#clipPath2)" stroke="rgb(153,51,0)"/>
      <path fill="rgb(153,51,0)" d="M876.4317 947.8164 L861.4317 941.5664 L865.1817 947.8164 L861.4317 954.0664 Z" stroke-width="3" clip-path="url(#clipPath2)" stroke="none"/>
      <text x="743.2393" y="896.3043" clip-path="url(#clipPath2)" font-family="sans-serif" stroke="none" stroke-width="1" xml:space="preserve">não</text>
      <path fill="none" d="M610.4108 791.0664 L518.1238 791.0664" stroke-width="3" clip-path="url(#clipPath2)" stroke="green"/>
      <path fill="green" d="M508.1238 791.0664 L523.1238 797.3164 L519.3738 791.0664 L523.1238 784.8164 Z" stroke-width="3" clip-path="url(#clipPath2)" stroke="none"/>
      <text x="549.9502" y="765.7803" clip-path="url(#clipPath2)" font-family="sans-serif" stroke="none" stroke-width="1" xml:space="preserve">sim</text>
    </g>
  </g>
</svg>
